<svg xmlns="http://www.w3.org/2000/svg" width="160.94117779055256" height="100.64705888952764" fill="none"><rect id="backgroundrect" width="100%" height="100%" x="0" y="0" fill="none" stroke="none" class="selected" style=""/>

<defs>
<clipPath id="clip0_18_1025">
<rect width="160" height="40" fill="white" y="31.821500778198242" x="0" id="svg_1"/>
</clipPath>
</defs>
<g class="currentLayer" style=""><title>Layer 1</title><g clip-path="url(#clip0_18_1025)" id="svg_2">
<path fill-rule="evenodd" clip-rule="evenodd" d="M6.68382 31.8215H33.3162C35.0891 31.821 36.7898 32.525 38.0436 33.7785C39.2975 35.032 40.002 36.7324 40.002 38.5054V65.1357C40.002 68.8283 37.0085 71.8215 33.3162 71.8215H6.68382C2.99213 71.8204 0 68.8275 0 65.1357V38.5054C0 34.814 2.99244 31.8215 6.68382 31.8215ZM30.6244 64.5497C31.7895 64.5497 32.734 63.6052 32.734 62.4401L32.7282 41.2049C32.7282 40.0398 31.7836 39.0953 30.6185 39.0953H9.38527C8.82545 39.0953 8.28858 39.3178 7.89291 39.7139C7.49724 40.1099 7.27522 40.647 7.27573 41.2068V62.4401C7.27573 63.6052 8.2202 64.5497 9.38527 64.5497H30.6244Z" fill="#F9F9F9" id="svg_3"/>
<path d="M15.7567 57.2448C15.0917 57.2395 14.5554 56.699 14.5554 56.0339V47.5568C14.5539 47.2347 14.6808 46.9251 14.9081 46.6968C15.1353 46.4684 15.4443 46.34 15.7664 46.34H24.2552C24.5772 46.3405 24.8857 46.4691 25.113 46.6973C25.3401 46.9256 25.4672 47.2348 25.4661 47.5568V56.0319C25.4672 56.3539 25.3401 56.6632 25.113 56.8914C24.8857 57.1197 24.5772 57.2483 24.2552 57.2488L15.7567 57.2448Z" fill="#F9F9F9" id="svg_4"/>
<path d="M60.3562 50.039C59.118 49.7013 57.9459 49.3831 57.0357 48.9775C55.3511 48.2245 54.5671 47.1803 54.5671 45.6938C54.5671 42.8836 57.284 41.6183 59.9895 41.6183C62.5608 41.6183 64.8062 42.6818 66.3142 44.6109L66.4169 44.7428L68.5906 43.0428L68.4859 42.9108C66.4811 40.3607 63.5119 38.9634 60.1213 38.9634C57.8644 38.9634 55.7955 39.5728 54.2993 40.6809C52.6148 41.9133 51.7259 43.7007 51.7259 45.8335C51.7259 50.7921 56.3951 52.001 60.1486 52.9734C63.9466 53.9748 66.2735 54.7355 66.2735 57.631C66.2735 60.4819 63.9679 62.3237 60.4008 62.3237C58.6368 62.3237 55.3706 61.8561 53.3173 58.7199L53.2222 58.5723L50.936 60.2277L51.0253 60.3617C52.966 63.2999 56.3157 64.9865 60.2262 64.9865C65.5379 64.9865 69.1088 61.9879 69.1088 57.5283C69.1088 52.4241 64.2531 51.1025 60.3562 50.039Z" fill="#F9F9F9" id="svg_5"/>
<path fill-rule="evenodd" clip-rule="evenodd" d="M86.4353 49.0084V46.3244H88.9912V71.8177H86.4353V61.8579C84.9759 63.8588 82.7868 64.9533 80.2133 64.9533C75.3539 64.9533 71.9575 61.0622 71.9575 55.4439C71.9575 49.8255 75.3615 45.9033 80.2133 45.9033C82.7693 45.9033 84.9584 47.0037 86.4353 49.0084ZM74.6513 55.4128C74.6513 60.6139 77.6302 62.4673 80.419 62.4673L80.4248 62.4691C84.0753 62.4691 86.4353 59.6746 86.4353 55.4128C86.4353 51.151 84.0715 48.3952 80.419 48.3952C76.167 48.3952 74.6513 52.0204 74.6513 55.4128Z" fill="#F9F9F9" id="svg_6"/>
<path d="M105.889 46.3245V56.387C105.889 59.9095 103.477 62.4673 100.154 62.4673C97.3945 62.4673 96.0516 60.8293 96.0516 57.4622V46.3245H93.4956V57.9842C93.4956 62.3508 95.8691 64.9572 99.8436 64.9572C102.32 64.9572 104.447 63.9073 105.891 61.9879V64.5419H108.447V46.3245H105.889Z" fill="#F9F9F9" id="svg_7"/>
<path fill-rule="evenodd" clip-rule="evenodd" d="M113.26 48.238C115.144 46.7573 117.702 45.9092 120.274 45.9092C124.336 45.9092 126.759 47.9295 126.752 51.3179V64.5459H124.194V62.5255C122.903 64.1421 121.036 64.9612 118.634 64.9612C114.719 64.9612 112.286 62.8205 112.286 59.3777C112.286 54.9005 116.505 54.1979 118.302 53.899C118.595 53.8506 118.898 53.8041 119.2 53.7574H119.201L119.211 53.7557C121.667 53.3777 124.202 52.9877 124.202 50.9046C124.202 48.5466 121.141 48.3642 120.204 48.3642C118.548 48.3642 116.21 48.8552 114.62 50.233L114.475 50.3592L113.14 48.3331L113.26 48.238ZM114.954 59.2341C114.954 62.153 117.702 62.4692 118.884 62.4692H118.886C121.456 62.4692 124.206 61.0992 124.2 57.2488V54.6132C122.953 55.4006 121.179 55.7083 119.596 55.9826L119.569 55.9874L118.775 56.129C116.241 56.5986 114.954 57.2041 114.954 59.2341Z" fill="#F9F9F9" id="svg_8"/>
<path d="M141.559 46.6679C140.952 46.2352 139.995 45.9771 138.998 45.9771C136.948 46.004 135.03 46.9922 133.818 48.6455V46.3167H131.262V64.5322H133.818V54.7899C133.818 50.4699 136.246 48.5349 138.65 48.5349C139.354 48.5255 140.051 48.6734 140.69 48.9677L140.863 49.0589L141.672 46.7417L141.559 46.6679Z" fill="#F9F9F9" id="svg_9"/>
<path fill-rule="evenodd" clip-rule="evenodd" d="M142.309 55.4826C142.309 49.8469 145.823 45.9092 150.848 45.9092C155.688 45.9092 159.07 49.4044 159.061 54.4172C159.059 54.853 159.035 55.2883 158.989 55.7214L158.973 55.8708H145C145.064 59.8823 147.479 62.4692 151.183 62.4692C153.307 62.4692 155.146 61.6057 156.363 60.0355L156.474 59.8921L158.325 61.5415L158.222 61.6657C156.992 63.1659 154.748 64.9554 151.042 64.9554C145.821 64.9554 142.309 61.1495 142.309 55.4826ZM150.778 48.3622C147.655 48.3622 145.441 50.4174 145.095 53.6177H156.359C156.138 51.0443 154.566 48.3622 150.778 48.3622Z" fill="#F9F9F9" id="svg_10"/>
</g></g></svg>