<svg width="208" height="103" viewBox="0 0 208 103" fill="none" xmlns="http://www.w3.org/2000/svg">
<g clip-path="url(#clip0_18_1010)">
<path d="M34.5302 37.7564C34.5302 37.682 34.5302 37.6076 34.4558 37.6076C34.3814 37.6076 34.3814 37.5332 34.3814 37.5332C34.3814 37.5332 34.3814 37.5332 34.307 37.5332C34.307 37.5332 34.2326 37.4587 34.1581 37.4587C34.1581 37.4587 34.1581 37.4587 34.0837 37.4587H33.9349C33.8605 37.4587 33.7116 37.4587 33.5628 37.4587C32.7442 37.3099 30.8093 37.3099 30.8093 37.3099C30.8093 37.3099 28.1302 34.7052 27.907 34.482C27.907 34.482 27.8326 34.4076 27.7581 34.4076C27.6837 34.3332 27.6093 34.3332 27.4605 34.2587C27.2372 34.2587 26.9395 34.2587 26.8651 34.3332C26.8651 34.3332 26.3442 34.482 25.5256 34.7797C25.3767 34.3332 25.1535 33.7378 24.8558 33.2169C23.8884 31.4308 22.5488 30.4634 20.8372 30.4634C20.6884 30.4634 20.614 30.4634 20.4651 30.4634C20.3907 30.389 20.3907 30.3145 20.3163 30.3145C19.5721 29.4959 18.6791 29.1238 17.4884 29.1983C15.3302 29.2727 13.1721 30.8355 11.4605 33.589C10.1953 35.5238 9.30233 37.9797 9.00465 39.9145C6.54884 40.6587 4.76279 41.2541 4.76279 41.2541C3.49767 41.6262 3.49767 41.7006 3.27442 42.8913C3.27442 43.6355 0 69.0122 0 69.0122L27.4605 73.775L39.3674 70.7983C39.4419 70.7983 34.5302 37.9797 34.5302 37.7564ZM20.614 36.268C19.2 36.7145 17.6372 37.1611 16 37.682C16.4465 35.9704 17.2651 34.2587 18.307 33.1425C18.6791 32.7704 19.2 32.2494 19.8698 32.0262C20.4651 33.2913 20.614 35.0773 20.614 36.268ZM17.6372 30.5378C18.1581 30.5378 18.6047 30.6122 18.9767 30.9099C18.3814 31.2076 17.8605 31.6541 17.2651 32.2494C15.9256 33.7378 14.8093 36.0448 14.4372 38.2029C13.0977 38.575 11.8326 39.0215 10.6419 39.3936C11.386 35.8959 14.2884 30.6866 17.6372 30.5378ZM13.4698 50.3332C13.6186 52.6401 19.7209 53.1611 20.0186 58.5936C20.3163 62.8355 17.786 65.8122 14.1395 66.0355C9.74884 66.3332 7.36744 63.7285 7.36744 63.7285L8.26047 59.7843C8.26047 59.7843 10.7163 61.6448 12.6512 61.4959C13.9163 61.4215 14.3628 60.3797 14.2884 59.6355C14.0651 56.5843 9.15349 56.8076 8.85581 51.8215C8.55814 47.6541 11.3116 43.4122 17.414 43.0401C19.7209 42.8913 20.9116 43.4866 20.9116 43.4866L19.4977 48.6959C19.4977 48.6959 17.9349 48.0262 16.1488 48.1006C13.4698 48.2494 13.3954 49.9611 13.4698 50.3332ZM22.0279 35.8215C22.0279 34.7052 21.8791 33.2169 21.3581 31.8773C22.9954 32.175 23.814 34.0355 24.186 35.1518C23.5163 35.375 22.8465 35.5983 22.0279 35.8215Z" fill="#F9F9F9"/>
<path d="M34.1581 37.3843C34.0093 37.3843 30.8093 37.3099 30.8093 37.3099C30.8093 37.3099 28.1302 34.7052 27.907 34.482C27.7581 34.3331 27.6093 34.3331 27.4604 34.2587V73.775L39.3674 70.7983C39.3674 70.7983 34.5302 37.9052 34.4558 37.682C34.4558 37.5331 34.307 37.3843 34.1581 37.3843Z" fill="#F9F9F9"/>
<path d="M55.0699 54.3517C53.7303 53.6075 52.9862 53.0122 52.9862 52.1192C52.9862 51.0029 53.9536 50.3331 55.5164 50.3331C57.3024 50.3331 58.8652 51.0773 58.8652 51.0773L60.1303 47.2075C60.1303 47.2075 59.0141 46.3145 55.5908 46.3145C50.9024 46.3145 47.628 48.9936 47.628 52.7889C47.628 54.9471 49.1908 56.5843 51.2001 57.775C52.8373 58.7424 53.4327 59.4122 53.4327 60.3796C53.4327 61.4215 52.6141 62.2401 51.0513 62.2401C48.7443 62.2401 46.6606 61.0494 46.6606 61.0494L45.321 64.8447C45.321 64.8447 47.3303 66.1843 50.6792 66.1843C55.5164 66.1843 59.0141 63.8029 59.0141 59.4866C58.9397 57.1796 57.228 55.5424 55.0699 54.3517Z" fill="#F9F9F9"/>
<path d="M74.4187 46.2401C72.0373 46.2401 70.1768 47.3564 68.6885 49.068L68.614 48.9936L70.6978 38.2029H65.2652L60.0559 65.8122H65.4885L67.2745 56.361C67.9443 52.7889 69.8047 50.6308 71.5164 50.6308C72.7071 50.6308 73.228 51.4494 73.228 52.6401C73.228 53.3843 73.1536 54.2773 73.0047 55.0215L70.9954 65.8122H76.428L78.5117 54.6494C78.735 53.4587 78.8838 52.0447 78.8838 51.1517C78.8838 48.1006 77.2466 46.2401 74.4187 46.2401Z" fill="#F9F9F9"/>
<path d="M91.0883 46.2401C84.6139 46.2401 80.2976 52.1192 80.2976 58.668C80.2976 62.8355 82.9023 66.1843 87.7395 66.1843C94.1395 66.1843 98.4557 60.4541 98.4557 53.7564C98.3813 49.961 96.1488 46.2401 91.0883 46.2401ZM88.4092 62.0913C86.5488 62.0913 85.8046 60.5285 85.8046 58.5936C85.8046 55.5424 87.4418 50.482 90.3441 50.482C92.279 50.482 92.8744 52.1192 92.8744 53.7564C92.8744 56.9564 91.2371 62.0913 88.4092 62.0913Z" fill="#F9F9F9"/>
<path d="M112.223 46.2401C108.577 46.2401 106.493 49.4401 106.493 49.4401H106.419L106.716 46.5378H101.953C101.73 48.4727 101.284 51.4494 100.837 53.682L97.1162 73.4773H102.549L104.037 65.5145H104.186C104.186 65.5145 105.302 66.1843 107.386 66.1843C113.712 66.1843 117.879 59.7099 117.879 53.0866C117.73 49.5145 116.167 46.2401 112.223 46.2401ZM107.014 62.1657C105.6 62.1657 104.781 61.4215 104.781 61.4215L105.674 56.361C106.27 53.0122 108.056 50.7796 109.916 50.7796C111.553 50.7796 112.074 52.3424 112.074 53.7564C112.149 57.1796 110.065 62.1657 107.014 62.1657Z" fill="#F9F9F9"/>
<path d="M125.47 38.5006C123.758 38.5006 122.344 39.8401 122.344 41.6262C122.344 43.2634 123.386 44.3053 124.874 44.3053H124.949C126.661 44.3053 128.074 43.189 128.149 41.1797C128.149 39.6169 127.107 38.5006 125.47 38.5006Z" fill="#F9F9F9"/>
<path d="M117.879 65.8122H123.312L126.958 46.6866H121.526L117.879 65.8122Z" fill="#F9F9F9"/>
<path d="M140.726 46.6866H137.005L137.228 45.7936C137.526 43.9331 138.642 42.2959 140.428 42.2959C141.395 42.2959 142.14 42.5936 142.14 42.5936L143.181 38.3517C143.181 38.3517 142.214 37.9052 140.279 37.9052C138.344 37.9052 136.409 38.4261 134.995 39.6913C133.135 41.254 132.316 43.561 131.87 45.7936L131.721 46.6866H129.191L128.372 50.7796H130.902L128 65.8122H133.433L136.26 50.7052H139.981L140.726 46.6866Z" fill="#F9F9F9"/>
<path d="M153.749 46.6866C153.749 46.6866 150.4 55.1704 148.837 59.8587H148.763C148.688 58.3704 147.423 46.6866 147.423 46.6866H141.767L145.042 64.2494C145.116 64.6215 145.116 64.8448 144.893 65.1425C144.298 66.3332 143.181 67.5239 141.991 68.4169C140.949 69.1611 139.832 69.6076 138.939 69.9797L140.428 74.5936C141.544 74.3704 143.777 73.4773 145.712 71.6913C148.167 69.3843 150.474 65.8122 152.781 60.975L159.405 46.8355L153.749 46.6866Z" fill="#F9F9F9"/>
</g>
<defs>
<clipPath id="clip0_18_1010">
<rect width="160" height="45.3954" fill="white" transform="translate(0 29.1238)"/>
</clipPath>
</defs>
</svg>
