<svg xmlns="http://www.w3.org/2000/svg" width="160.94117779055267" height="93.58823555811045" fill="none"><rect id="backgroundrect" width="100%" height="100%" x="0" y="0" fill="none" stroke="none" class="selected" style=""/>

<defs>
<clipPath id="clip0_18_1035">
<rect width="160" height="24.571399688720703" fill="white" y="39.53580093383789" x="0" id="svg_1"/>
</clipPath>
</defs>
<g class="currentLayer" style=""><title>Layer 1</title><g clip-path="url(#clip0_18_1035)" id="svg_2">
<path d="M26 50.0502C26 44.9644 29.7714 40.8502 35.1429 40.8502C38.4 40.8502 40.4 41.993 42.0571 43.593L40.0571 45.8787C38.6286 44.5644 37.1429 43.6502 35.0857 43.6502C31.7143 43.6502 29.2571 46.4502 29.2571 49.8787V49.9359C29.2571 53.4216 31.7143 56.2216 35.0857 56.2216C37.2571 56.2216 38.6286 55.3644 40.1714 53.9359L42.1714 55.9359C40.3429 57.8787 38.2857 59.0787 34.9714 59.0787C29.8286 59.1359 26 55.1359 26 50.0502ZM44.9143 41.1359H48.2286L53.6 49.5359L59.0286 41.1359H62.3429V58.8502H59.2V46.1644L53.6 54.5073H53.5429L48 46.2216V58.8502H44.9143V41.1359ZM65.6571 41.1359H78.8V43.9359H68.8V48.5073H77.6571V51.3073H68.8V56.0502H78.9143V58.8502H65.6571V41.1359ZM85.3714 50.0502C85.3714 45.0216 89.1429 40.8502 94.5143 40.8502C97.6 40.8502 99.4857 41.7073 101.314 43.2502L99.3143 45.593C97.9429 44.4502 96.6286 43.7073 94.3429 43.7073C91.0857 43.7073 88.6286 46.5644 88.6286 49.9359V49.993C88.6286 53.6502 91.0286 56.3359 94.6286 56.3359C96.2857 56.3359 97.8286 55.8216 98.9143 55.0216V51.7073H94.4V49.0216H101.943V56.4502C100.171 57.9359 97.7143 59.193 94.5714 59.193C89.0286 59.1359 85.3714 55.193 85.3714 50.0502ZM105.143 45.4787H108.229V48.5073C109.086 46.5073 110.629 45.1359 112.971 45.2502V48.5073H112.8C110.114 48.5073 108.229 50.2787 108.229 53.8216V58.9073H105.143V45.4787ZM114.171 52.2216C114.171 48.3359 117.2 45.193 121.314 45.193C125.429 45.193 128.4 48.2787 128.4 52.1073V52.1644C128.4 55.9359 125.371 59.1359 121.257 59.1359C117.2 59.1359 114.171 56.0502 114.171 52.2216ZM125.371 52.2216C125.371 49.8216 123.657 47.8787 121.257 47.8787C118.8 47.8787 117.257 49.8216 117.257 52.1073V52.1644C117.257 54.5073 118.971 56.4502 121.314 56.4502C123.829 56.5073 125.371 54.5644 125.371 52.2216ZM130.857 53.993V45.4787H133.943V53.0787C133.943 55.1359 134.971 56.3359 136.8 56.3359C138.571 56.3359 139.829 55.0787 139.829 53.0216V45.4787H142.914V58.8502H139.829V56.793C138.971 58.0502 137.714 59.1359 135.657 59.1359C132.629 59.1359 130.857 57.0787 130.857 53.993ZM146 45.4787H149.086V47.7073C150.057 46.3359 151.486 45.193 153.6 45.193C156.743 45.193 159.829 47.7073 159.829 52.1073V52.1644C159.829 56.5644 156.8 59.0787 153.6 59.0787C151.371 59.0787 150 57.993 149.086 56.7359V63.6502H146V45.4787ZM156.686 52.2216C156.686 49.593 154.914 47.8787 152.857 47.8787C150.8 47.8787 148.971 49.593 148.971 52.1644V52.2216C148.971 54.793 150.8 56.5073 152.857 56.5073C154.971 56.4502 156.686 54.8502 156.686 52.2216Z" fill="#F9F9F9" id="svg_3"/>
<path d="M16.3428 49.8787H11.0856V44.9644H15.4856C15.9999 46.4501 16.2856 48.1073 16.3428 49.8787ZM5.1999 44.9644H1.37133L0.399902 45.9359V49.8787H4.3999C4.3999 48.1073 4.68562 46.4501 5.1999 44.9644ZM4.3999 50.6216H0.399902V54.6216L1.31419 55.5359H5.1999C4.68562 54.0501 4.3999 52.393 4.3999 50.6216ZM11.0856 56.2787V60.6216H11.9428C13.3142 59.5359 14.3999 58.1073 15.1999 56.2787H11.0856ZM8.34276 39.9359H6.34276L2.11419 44.2216H5.48562C6.17133 42.5073 7.14276 41.0787 8.34276 39.9359ZM16.1713 55.5359H20.057L21.0285 54.5644V50.5644H17.0285C16.9713 52.393 16.6856 54.0501 16.1713 55.5359ZM19.3142 44.2216L15.0285 39.9359H13.0856C14.2856 41.0787 15.257 42.5073 15.9428 44.2216H19.3142ZM16.3428 50.6216H11.0856V55.5359H15.4285C15.9999 54.0501 16.2856 52.393 16.3428 50.6216ZM20.057 44.9644H16.2285C16.7428 46.4501 17.0285 48.1073 17.0285 49.8787H21.0285V45.9359L20.057 44.9644ZM5.94276 55.5359H10.3428V50.6216H5.08562C5.14276 52.393 5.42847 54.0501 5.94276 55.5359ZM6.22847 44.2216H10.3428V39.9359H9.42847C8.05705 40.9644 6.97133 42.4501 6.22847 44.2216ZM11.9999 39.9359H11.0856V44.2216H15.1999C14.457 42.4501 13.3713 40.9644 11.9999 39.9359ZM2.05705 56.2787L6.3999 60.6216H8.3999C7.1999 59.4787 6.17133 57.993 5.48562 56.2787H2.05705ZM9.48562 60.6216H10.3428V56.2787H6.22847C7.02847 58.0501 8.11419 59.5359 9.48562 60.6216ZM13.0285 60.6216H15.0285L19.3713 56.2787H15.9428C15.257 57.993 14.2285 59.4787 13.0285 60.6216ZM5.08562 49.8787H10.3428V44.9644H5.94276C5.42847 46.4501 5.14276 48.1073 5.08562 49.8787Z" fill="#F9F9F9" id="svg_4"/>
</g></g></svg>