<svg width="208" height="103" viewBox="0 0 208 103" fill="none" xmlns="http://www.w3.org/2000/svg">
<g clip-path="url(#clip0_18_1045)">
<path d="M140.5 48.1448C140.46 45.415 138.919 43.3905 136.294 42.5807C133.917 41.8493 131.487 41.8362 129.071 42.3456C127.595 42.6591 126.38 43.4819 125.531 44.4876C126.511 45.5587 127.438 46.5774 128.405 47.6223C129.698 46.0811 131.344 45.8852 133.133 46.0942C135.145 46.3293 136.072 47.557 135.68 50.104C134.087 50.104 132.467 50.0517 130.86 50.117C129.985 50.1562 129.071 50.2607 128.235 50.548C125.257 51.5668 124.199 53.9701 124.696 57.0134C124.957 58.646 125.78 59.9783 127.256 60.8272C129.62 62.1856 133.368 61.8852 135.484 60.1742C135.576 60.0958 135.68 60.0436 135.876 59.926V61.4542H140.474C140.5 61.2844 140.513 61.1799 140.513 61.0623C140.526 56.7782 140.552 52.468 140.5 48.1448ZM135.693 55.5505C135.562 56.5431 134.962 57.2093 134.034 57.5358C132.924 57.9407 131.775 57.9407 130.638 57.6272C129.672 57.3529 129.136 56.5562 129.149 55.5766C129.149 54.584 129.659 53.8003 130.665 53.5652C131.579 53.3562 132.545 53.3431 133.499 53.2387C133.499 53.2648 133.499 53.304 133.512 53.3301C134.1 53.3301 134.687 53.3431 135.275 53.3301C135.615 53.317 135.824 53.4215 135.798 53.8003C135.758 54.388 135.771 54.9758 135.693 55.5505Z" fill="#F9F9F9"/>
<path d="M84.9894 48.1448C84.9502 45.4019 83.409 43.4035 80.7837 42.5937C78.4065 41.8623 75.9771 41.8492 73.5608 42.3717C72.0849 42.6852 70.8702 43.508 70.0343 44.5007C71.0139 45.5848 71.9412 46.6035 72.8947 47.6615C74.0441 46.2378 75.5461 45.9505 77.1788 46.068C79.6212 46.2509 80.7575 47.7921 80.1567 50.1431C78.5633 50.1431 76.9567 50.0909 75.3502 50.1692C74.4751 50.2084 73.5608 50.3129 72.7249 50.6003C69.7469 51.619 68.689 54.0223 69.1853 57.0656C69.4335 58.6068 70.2041 59.8476 71.5232 60.7488C73.2473 61.9374 77.9624 62.2901 79.8824 60.3048C79.9869 60.1872 80.1437 60.1219 80.3788 59.9652V61.5064H84.9763C85.0024 61.3235 85.0155 61.219 85.0155 61.1146C85.0155 56.7782 85.0416 52.455 84.9894 48.1448ZM80.1959 55.5244C80.0522 56.5431 79.4514 57.2223 78.4979 57.5619C77.453 57.9276 76.3559 57.9407 75.2979 57.6664C74.1877 57.379 73.6 56.5431 73.6522 55.4721C73.7045 54.4141 74.4098 53.6566 75.5069 53.4346C75.7159 53.3954 75.9379 53.3431 76.1469 53.3301C76.7739 53.317 77.4139 53.3301 78.0408 53.3301C78.6024 53.3301 79.1771 53.3431 79.7388 53.3301C80.1175 53.317 80.3135 53.4476 80.2873 53.8395C80.2481 54.4011 80.2612 54.9758 80.1959 55.5244Z" fill="#F9F9F9"/>
<path d="M122.475 48.1579C122.436 45.3497 120.855 43.3644 118.165 42.5546C116.036 41.9146 113.868 41.9015 111.712 42.215C109.975 42.4762 108.526 43.2991 107.52 44.5007C108.486 45.5717 109.414 46.5905 110.38 47.6615C111.556 46.2117 113.071 45.9244 114.73 46.055C117.133 46.2509 118.204 47.7007 117.681 50.1301C117.446 50.1301 117.185 50.1301 116.924 50.1301C115.148 50.1693 113.345 50.104 111.582 50.2738C109.492 50.4828 107.846 51.4885 106.971 53.513C106.54 54.5317 106.553 55.5897 106.632 56.6477C106.801 58.8419 108.212 60.7358 110.328 61.2975C112.914 61.9897 115.461 62.0681 117.629 60.0958C117.668 60.0566 117.734 60.0566 117.864 60.0175V61.4672H122.475C122.488 61.2975 122.514 61.1668 122.514 61.0493C122.501 56.7521 122.527 52.455 122.475 48.1579ZM117.681 55.5375C117.499 56.7913 116.415 57.6926 115.03 57.797C114.756 57.8101 114.468 57.797 114.181 57.797C114.181 57.8232 114.181 57.8493 114.168 57.8885C113.698 57.8232 113.214 57.797 112.757 57.6795C111.699 57.4052 111.086 56.5954 111.112 55.5505C111.138 54.4926 111.817 53.6436 112.914 53.4738C113.685 53.3562 114.468 53.3693 115.252 53.3432C115.905 53.3301 116.558 53.3562 117.211 53.3301C117.59 53.317 117.786 53.4477 117.76 53.8526C117.734 54.4142 117.76 54.9758 117.681 55.5375Z" fill="#F9F9F9"/>
<path d="M88.5028 42.3195C90.031 42.3195 91.5199 42.3195 93.0742 42.3195C93.0742 42.8289 93.0742 43.3252 93.0742 44.0044C93.3746 43.7693 93.5575 43.6517 93.7273 43.5081C96.4048 41.3138 100.715 41.5881 102.896 44.0827C103.85 45.1668 104.411 46.4599 104.437 47.8705C104.503 52.3374 104.464 56.8044 104.477 61.2844C104.477 61.3236 104.451 61.3627 104.411 61.5195C103.889 61.5195 103.34 61.5195 102.779 61.5195C102.021 61.5195 101.251 61.4803 100.493 61.5325C99.853 61.5848 99.7355 61.3236 99.7355 60.7489C99.7485 57.2354 99.7485 53.7219 99.7355 50.2085C99.7355 49.7383 99.7224 49.2419 99.6179 48.7848C99.2522 47.1391 97.8546 46.1334 96.222 46.3032C94.4065 46.486 93.244 47.7399 93.231 49.6338C93.2048 52.8468 93.2179 56.0599 93.2179 59.2729C93.2179 59.9913 93.2179 60.6966 93.2179 61.4672C91.6244 61.4672 90.0832 61.4672 88.4897 61.4672C88.5028 55.1064 88.5028 48.7587 88.5028 42.3195Z" fill="#F9F9F9"/>
<path d="M148.741 61.4803C147.122 61.4803 145.58 61.4803 144.013 61.4803C144.013 55.1064 144.013 48.7586 144.013 42.3456C145.502 42.3456 147.004 42.3456 148.61 42.3456C148.61 42.8419 148.61 43.3382 148.61 43.9652C148.846 43.7954 148.976 43.7301 149.081 43.6386C150.948 42.0843 153.077 41.7056 155.389 42.2803C157.975 42.9203 159.869 45.1145 159.935 47.8835C160.039 52.3505 159.974 56.8174 159.974 61.2843C159.974 61.3235 159.948 61.3627 159.922 61.4933C159.739 61.5064 159.53 61.5194 159.321 61.5194C158.237 61.5194 157.139 61.4672 156.055 61.5325C155.35 61.5717 155.233 61.2974 155.233 60.6835C155.259 57.2354 155.246 53.7872 155.233 50.339C155.233 49.7643 155.193 49.1635 155.05 48.6019C154.684 47.126 153.443 46.2509 151.915 46.2901C150.361 46.3423 149.185 47.2696 148.859 48.7325C148.767 49.1243 148.728 49.5423 148.728 49.9603C148.715 53.5129 148.728 57.0786 148.728 60.6313C148.741 60.8925 148.741 61.1537 148.741 61.4803Z" fill="#F9F9F9"/>
<path d="M66.6384 56.3211C66.6384 57.7317 66.6514 59.0379 66.6253 60.3309C66.6253 60.4746 66.4294 60.6836 66.2857 60.7358C62.8375 61.9244 59.3633 62.1856 55.9151 60.7619C53.8384 59.8999 52.4277 58.3326 51.7224 56.2166C50.7559 53.3432 50.7298 50.4436 51.9053 47.6354C53.2375 44.4354 55.7714 42.6983 59.1543 42.1889C61.44 41.8362 63.6996 42.0583 65.9461 42.5677C66.4294 42.6852 66.6122 42.8811 66.5992 43.3905C66.56 44.7097 66.5861 46.0289 66.5861 47.4003C65.8155 47.126 65.0971 46.8387 64.3526 46.6297C63.1379 46.2901 61.9102 46.055 60.6171 46.2379C58.1877 46.6036 56.5681 48.197 56.2677 50.6395C56.1241 51.8281 56.1371 53.0166 56.5551 54.1791C57.3518 56.4126 59.3371 57.6795 61.9102 57.4183C63.2555 57.2877 64.5747 56.8697 65.9069 56.5693C66.1159 56.5301 66.3118 56.4387 66.6384 56.3211Z" fill="#F9F9F9"/>
<path d="M40.6072 51.9195C40.6072 49.3203 40.6072 46.7081 40.6072 44.1089C40.6072 43.4558 40.2937 43.0248 39.6407 42.9464C39.2488 42.8942 38.7786 42.9072 38.4521 43.077C36.9239 43.9129 35.4219 44.7881 33.946 45.7023C33.6978 45.8591 33.4627 46.2901 33.4627 46.5905C33.4235 50.1693 33.4366 53.7481 33.4627 57.3268C33.4627 57.6403 33.6717 58.0974 33.9199 58.2411C35.4741 59.1554 37.0415 60.0436 38.6611 60.8403C39.7974 61.4019 40.6595 60.5399 40.6333 59.5211C40.568 56.9872 40.6072 54.4534 40.6072 51.9195ZM39.7452 51.9064C39.7452 54.375 39.7452 56.8566 39.7452 59.3252C39.7452 60.1481 39.497 60.3309 38.7525 59.9391C37.3811 59.2207 36.0358 58.4762 34.7035 57.6925C34.5076 57.575 34.3248 57.2615 34.3248 57.0395C34.2986 53.6697 34.2986 50.313 34.3248 46.9432C34.3248 46.7081 34.5337 46.3815 34.7427 46.2509C36.0227 45.4672 37.3158 44.7097 38.6088 43.9652C39.3795 43.5211 39.7321 43.7301 39.7321 44.6183C39.7452 47.0476 39.7452 49.477 39.7452 51.9064Z" fill="#F9F9F9"/>
<path d="M37.4594 63.766C37.3027 63.4003 37.0676 62.9954 36.7541 62.7995C35.2782 61.8852 33.7631 61.0231 32.235 60.2134C31.9737 60.0697 31.4905 60.0827 31.2162 60.2395C28.0945 61.9897 24.999 63.7791 21.9035 65.5815C21.6292 65.7382 21.3419 66.1431 21.3419 66.4305C21.3288 68.2329 21.3288 70.0354 21.4464 71.8248C21.5248 73.0787 22.7133 73.4052 23.5754 72.8827C25.7435 71.5636 27.9639 70.3358 30.1713 69.0689C32.4309 67.7758 34.6905 66.4827 36.937 65.1766C37.5117 64.8631 37.7207 64.3799 37.4594 63.766ZM36.0619 64.6934C33.959 65.908 31.8431 67.1097 29.7403 68.3244C27.5982 69.5521 25.4562 70.7929 23.3011 72.0207C22.5827 72.4256 22.3084 72.308 22.2823 71.4721C22.217 69.9309 22.2039 68.3897 22.217 66.8485C22.217 66.6264 22.4129 66.3129 22.5958 66.1954C25.4954 64.4974 28.4211 62.8256 31.3468 61.1668C31.5558 61.0493 31.9345 61.0623 32.1566 61.1799C33.4758 61.8983 34.7688 62.6427 36.0619 63.4003C36.8456 63.8444 36.8325 64.2493 36.0619 64.6934Z" fill="#F9F9F9"/>
<path d="M18.9778 66.4305C18.9778 66.1431 18.6904 65.7382 18.4161 65.5815C15.3337 63.766 12.2251 61.9896 9.10348 60.2394C8.84226 60.0958 8.35899 60.0696 8.08471 60.2133C6.55654 61.0362 5.04144 61.8982 3.56552 62.7994C3.25205 62.9954 3.00389 63.4133 2.86022 63.766C2.59899 64.3798 2.80797 64.8631 3.38267 65.1896C5.64226 66.4958 7.90185 67.7888 10.1484 69.0819C12.3427 70.3488 14.5761 71.5766 16.7443 72.8958C17.6063 73.4182 18.7949 73.1047 18.8733 71.8378C18.9908 70.0354 18.9908 68.2329 18.9778 66.4305ZM18.0374 71.459C18.0112 72.2949 17.7239 72.4125 17.0186 72.0076C14.8765 70.7798 12.7345 69.539 10.5794 68.3113C8.47654 67.0966 6.36063 65.895 4.25777 64.6803C3.50022 64.2362 3.48716 63.8313 4.24471 63.3872C5.53777 62.6296 6.84389 61.8852 8.16307 61.1668C8.38512 61.0492 8.76389 61.0362 8.97287 61.1537C11.8986 62.7994 14.8243 64.4843 17.7239 66.1823C17.9198 66.2998 18.1027 66.6133 18.1027 66.8354C18.1157 68.3766 18.1027 69.9178 18.0374 71.459Z" fill="#F9F9F9"/>
<path d="M7.17054 57.0394C7.17054 57.3399 6.9485 57.7709 6.68727 57.9276C5.21135 58.8419 3.70931 59.7301 2.19421 60.5529C1.86768 60.7358 1.39747 60.7358 1.00564 60.6835C0.352577 60.6052 0.0391073 60.1872 0.0391073 59.5211C0.0391073 56.9219 0.0391073 54.3096 0.0391073 51.7105C0.0391073 49.1766 0.078291 46.6296 0.0129849 44.0958C-0.0261988 43.1031 0.848903 42.2411 1.97217 42.7896C3.59176 43.5864 5.15911 44.4745 6.71339 45.3888C6.96156 45.5325 7.17054 45.9896 7.17054 46.3031C7.20972 49.8819 7.20972 53.4607 7.17054 57.0394Z" fill="#F9F9F9"/>
<path d="M19.2912 37.2125C19.2912 37.4999 19.0039 37.9048 18.7296 38.0615C15.6341 39.877 12.5386 41.6533 9.41696 43.4035C9.15573 43.5603 8.65941 43.5733 8.39818 43.4297C6.87002 42.6199 5.35492 41.7578 3.879 40.8435C3.56553 40.6476 3.31737 40.2297 3.17369 39.877C2.91247 39.2631 3.12145 38.7799 3.69614 38.4533C5.94267 37.1603 8.20226 35.8542 10.4619 34.5611C12.6692 33.2942 14.8896 32.0795 17.0578 30.7603C17.9198 30.2378 19.1084 30.5513 19.1868 31.8182C19.3043 33.6076 19.3043 35.4101 19.2912 37.2125Z" fill="#F9F9F9"/>
<path d="M37.7729 39.877C37.6162 40.2427 37.3811 40.6476 37.0676 40.8435C35.5917 41.7447 34.0766 42.6198 32.5484 43.4296C32.2872 43.5733 31.8039 43.5603 31.5297 43.4035C28.408 41.6533 25.3125 39.8639 22.217 38.0615C21.9427 37.9047 21.6554 37.4998 21.6554 37.2125C21.6423 35.4101 21.6423 33.6076 21.7599 31.8182C21.8382 30.5643 23.0268 30.2378 23.8888 30.7603C26.057 32.0794 28.2774 33.2941 30.4848 34.5611C32.7443 35.8541 35.0039 37.1472 37.2505 38.4533C37.8252 38.7798 38.0341 39.2631 37.7729 39.877Z" fill="#F9F9F9"/>
</g>
<defs>
<clipPath id="clip0_18_1045">
<rect width="160" height="42.6188" fill="white" transform="translate(0 30.5121)"/>
</clipPath>
</defs>
</svg>
