<svg xmlns="http://www.w3.org/2000/svg" width="160.94117779055273" height="87.70588278192963" fill="none"><rect id="backgroundrect" width="100%" height="100%" x="0" y="0" fill="none" stroke="none" class="selected" style=""/>


<g class="currentLayer" style=""><title>Layer 1</title><path d="M154.907 36.3458C153.634 36.3185 152.122 36.5931 150.408 37.1582C150.151 37.2484 149.948 37.3908 149.765 37.571C148.021 39.2073 146.326 40.942 144.723 42.7354L144.6 42.8715C144.566 42.9101 144.562 42.9675 144.587 43.0121C144.613 43.0571 144.664 43.0804 144.714 43.0692L144.894 43.0318C147.477 42.4797 150.085 42.0558 152.643 41.7759C152.812 41.7573 152.985 41.815 153.111 41.9296C153.236 42.0453 153.31 42.2104 153.306 42.3819C153.264 44.9207 153.355 47.472 153.581 49.966L153.596 50.1285C153.602 50.1783 153.636 50.2184 153.686 50.2317C153.695 50.2339 153.703 50.2362 153.715 50.2362C153.753 50.2367 153.791 50.2189 153.814 50.1857L153.908 50.0518C155.349 47.9953 156.918 45.9963 158.567 44.1057C158.752 43.8954 158.801 43.763 158.835 43.5721C159.354 40.2489 158.553 37.7911 157.836 37.1693C157.214 36.6295 156.31 36.3761 154.907 36.3459L154.907 36.3458ZM150.95 43.0779L150.792 43.0999C148.324 43.4397 145.826 43.9106 143.366 44.4985C143.122 44.5667 142.966 44.7251 142.931 44.762C141.09 46.9668 139.347 49.2874 137.747 51.6654C137.667 51.7857 137.659 52.0739 137.659 52.0739C137.659 52.0739 138.061 55.1714 138.648 57.4534C137.193 61.6353 135.896 67.1454 135.896 67.1454C135.886 67.1812 135.893 67.2185 135.914 67.2486C135.936 67.2788 135.97 67.298 136.008 67.2991H136.836C136.888 67.2999 136.934 67.2682 136.952 67.2201L137.009 67.0642C137.854 64.76 138.817 62.4853 139.882 60.2684C140.129 59.7519 140.652 58.7094 140.652 58.7094C140.738 58.5401 141.139 57.7707 141.23 57.5983L141.245 57.5676C143.925 52.5118 147.192 47.7429 150.952 43.3941L151.056 43.2755C151.087 43.2378 151.094 43.183 151.071 43.1394C151.046 43.0955 150.998 43.0714 150.95 43.0779L150.95 43.0779ZM152.088 44.0309C152.041 44.0135 151.988 44.0253 151.956 44.0638L151.853 44.1846C147.468 49.2551 143.784 54.883 140.9 60.9117L140.832 61.0523C140.81 61.0968 140.819 61.1504 140.852 61.1862C140.875 61.2098 140.905 61.2232 140.938 61.2235C140.952 61.2241 140.971 61.2213 140.986 61.2145L141.131 61.1531C143.593 60.1329 146.109 59.2489 148.607 58.5269C148.757 58.4835 148.881 58.3798 148.952 58.2415C150.047 56.1068 152.59 51.9749 152.59 51.9749C152.656 51.8817 152.641 51.7421 152.641 51.7421C152.641 51.7421 152.194 46.7999 152.167 44.2985L152.164 44.1404C152.162 44.0909 152.133 44.0472 152.088 44.0306L152.088 44.0309ZM145.586 60.6285L145.382 60.6988C144.058 61.1386 142.1 61.8146 140.343 62.6222C140.248 62.6664 140.187 62.7891 140.187 62.7891C140.154 62.8643 140.114 62.9583 140.068 63.0636L140.061 63.0767C139.865 63.5247 139.591 64.199 139.475 64.4732L139.385 64.6906C139.371 64.725 139.379 64.7635 139.407 64.7894C139.423 64.8049 139.442 64.8127 139.466 64.8136C139.479 64.8136 139.493 64.8113 139.506 64.8046L139.719 64.7036C140.199 64.475 140.809 64.1286 141.447 63.8253L141.469 63.8141C142.682 63.2385 144.051 62.5889 144.877 62.1958C144.877 62.1953 145.009 62.1242 145.076 61.9916L145.693 60.7532C145.71 60.7209 145.705 60.6821 145.682 60.6544C145.657 60.6274 145.62 60.6168 145.586 60.6281L145.586 60.6285Z" fill="#F9F9F9" id="svg_1"/><path d="M32.3386 39.3627V59.9171H34.844V58.4811H34.9011C35.8584 59.5792 37.6051 60.3409 39.1257 60.3409C43.0679 60.3409 45.6009 57.2429 45.6009 52.4559C45.6009 47.8098 42.9538 44.571 39.1806 44.571C37.6882 44.571 36.1128 45.3045 35.1272 46.4308H35.0701V39.3627H32.3386ZM47.7417 39.3627V42.2633H50.6972V39.3627H47.7417ZM68.6913 39.3627V59.9171H71.4228V50.5413C71.4228 48.5138 72.8874 47.1049 74.9711 47.1049C77.0267 47.1049 78.2099 48.4566 78.2099 50.7938V59.9171H80.9414V50.1197C80.9414 46.7125 78.8853 44.571 75.6189 44.571C73.9575 44.571 72.2683 45.3594 71.4799 46.4857H71.4228V39.3627H68.6913ZM124.024 39.3627V46.4308H123.967C122.981 45.2763 121.432 44.571 119.94 44.571C116.167 44.571 113.491 47.8661 113.491 52.4559C113.491 57.2429 116.026 60.3409 119.968 60.3409C121.489 60.3409 123.233 59.5792 124.191 58.4811H124.248V59.9171H126.753V39.3627H124.024ZM0.998779 40.2081V59.9171H3.81372V52.1178H7.84071C10.9382 52.1178 12.0653 53.3572 12.0653 56.7925V59.9171H14.7968V56.7925C14.7968 53.6461 13.8362 51.778 11.7513 51.0089C13.8886 50.2602 15.3589 48.4979 15.3589 45.9236C15.3589 42.4319 12.7673 40.2081 8.71242 40.2081H0.998779ZM3.81372 42.7705H8.45991C11.135 42.7705 12.5154 43.9238 12.5154 46.2047C12.5154 48.401 11.1072 49.6125 8.48846 49.6125H3.81372V42.7705ZM23.4678 44.571C19.413 44.571 16.6259 47.8098 16.6259 52.4559C16.6259 57.2148 19.3285 60.3409 23.4678 60.3409C27.5508 60.3409 30.2263 57.2148 30.2263 52.4559C30.2263 47.8098 27.4663 44.571 23.4678 44.571ZM60.4968 44.571C58.9199 44.571 57.2315 45.3326 56.4149 46.4308H56.3578V44.9948H53.6834V59.9171H56.4149V50.5413C56.4149 48.4294 57.795 47.1049 59.9632 47.1049C62.1033 47.1049 63.1163 48.3459 63.1163 50.9365V59.9171H65.8764V50.146C65.8764 46.7107 63.7913 44.571 60.4968 44.571H60.4968ZM89.7529 44.571C85.698 44.571 82.9109 47.8098 82.9109 52.4559C82.9109 57.2148 85.6136 60.3409 89.7529 60.3409C93.8359 60.3409 96.5114 57.2148 96.5114 52.4559C96.5114 47.8098 93.7514 44.571 89.7529 44.571ZM105.044 44.571C100.989 44.571 98.2021 47.8098 98.2021 52.4559C98.2021 57.2148 100.905 60.3409 105.044 60.3409C109.127 60.3409 111.803 57.2148 111.803 52.4559C111.803 47.8098 109.043 44.571 105.044 44.571ZM47.8537 44.9948V59.9171H50.5852V44.9948H47.8537ZM23.4678 47.0786C25.9458 47.0786 27.5233 49.1896 27.5233 52.4559C27.5233 55.7505 25.9458 57.8619 23.4678 57.8619C20.9054 57.8619 19.3288 55.7787 19.3288 52.4559C19.3288 49.1332 20.9054 47.0786 23.4678 47.0786ZM38.7019 47.0786C41.3769 47.0786 42.8694 49.0206 42.8694 52.4559C42.8694 55.9194 41.3769 57.8619 38.7019 57.8619C36.6463 57.8619 35.0701 56.4553 35.0701 54.5968V50.5983C35.0701 48.5991 36.6463 47.0786 38.7019 47.0786ZM89.7529 47.0786C92.2308 47.0786 93.8084 49.1896 93.8084 52.4559C93.8084 55.7505 92.2308 57.8619 89.7529 57.8619C87.1905 57.8619 85.6139 55.7787 85.6139 52.4559C85.6139 49.1332 87.1905 47.0786 89.7529 47.0786ZM105.044 47.0786C107.522 47.0786 109.1 49.1896 109.1 52.4559C109.1 55.7505 107.522 57.8619 105.044 57.8619C102.482 57.8619 100.905 55.7787 100.905 52.4559C100.905 49.1332 102.482 47.0786 105.044 47.0786ZM120.39 47.0786C122.446 47.0786 124.024 48.5991 124.024 50.5983V54.5968C124.024 56.4553 122.446 57.8619 120.39 57.8619C117.715 57.8619 116.223 55.9194 116.223 52.4559C116.223 49.0206 117.715 47.0786 120.39 47.0786Z" fill="#F9F9F9" id="svg_2"/></g></svg>