<svg width="124" height="21" viewBox="0 0 124 21" fill="none" xmlns="http://www.w3.org/2000/svg">
<path d="M26.394 17.9423C26.1937 18.0048 25.9616 18.0623 25.7003 18.1198C25.4389 18.1772 25.1653 18.2247 24.8795 18.2672C24.5937 18.3072 24.3005 18.3421 24.005 18.3671C23.7094 18.3921 23.4236 18.4046 23.1524 18.4046C22.5002 18.4046 21.9164 18.3072 21.4034 18.1123C20.8904 17.9174 20.4581 17.6375 20.1063 17.2727C19.7546 16.9079 19.4859 16.4656 19.3002 15.9458C19.1146 15.4261 19.0217 14.8439 19.0217 14.1967C19.0217 13.5395 19.1023 12.9448 19.2636 12.4176C19.4248 11.8879 19.6544 11.4381 19.9573 11.0683C20.2602 10.6984 20.6291 10.4161 21.0639 10.2212C21.5011 10.0263 21.9995 9.92883 22.5637 9.92883C22.874 9.92883 23.1549 9.95881 23.3992 10.0213C23.6459 10.0838 23.895 10.1712 24.1442 10.2837V6.61298L26.3891 6.24316V17.9423H26.394ZM21.3155 14.0893C21.3155 14.7989 21.4718 15.3686 21.7821 15.8009C22.0923 16.2332 22.5564 16.4481 23.1695 16.4481C23.3699 16.4481 23.5555 16.4406 23.7265 16.4256C23.8975 16.4106 24.0367 16.3931 24.1491 16.3706V12.1927C24.0074 12.1002 23.8242 12.0228 23.5995 11.9628C23.3723 11.9003 23.1451 11.8704 22.9131 11.8704C21.848 11.8704 21.3155 12.61 21.3155 14.0893Z" fill="#F9F9F9"/>
<path d="M31.3505 9.88135C32.0125 9.88135 32.567 9.95881 33.0092 10.1137C33.4513 10.2687 33.8055 10.4885 34.0718 10.7759C34.338 11.0633 34.5261 11.4131 34.636 11.8254C34.746 12.2377 34.8021 12.6949 34.8021 13.1972V17.9748C34.4797 18.0473 34.0327 18.1322 33.4611 18.2297C32.8895 18.3271 32.1957 18.3771 31.3823 18.3771C30.8693 18.3771 30.4052 18.3296 29.9875 18.2372C29.5697 18.1447 29.2107 17.9923 28.9102 17.7824C28.6097 17.5725 28.3777 17.2977 28.2164 16.9578C28.0552 16.618 27.9746 16.2032 27.9746 15.7084C27.9746 15.2362 28.0674 14.8339 28.2531 14.5065C28.4387 14.1767 28.6879 13.9168 28.9981 13.7194C29.3084 13.5245 29.665 13.3821 30.0681 13.2946C30.4687 13.2072 30.8864 13.1647 31.3188 13.1647C31.6094 13.1647 31.8684 13.1772 32.0956 13.2022C32.3227 13.2272 32.5059 13.2622 32.6452 13.3021V13.0872C32.6452 12.6974 32.5304 12.3826 32.2983 12.1477C32.0662 11.9103 31.6656 11.7929 31.0916 11.7929C30.7105 11.7929 30.3319 11.8204 29.9606 11.8779C29.5893 11.9353 29.2668 12.0153 28.9957 12.1177L28.7099 10.2687C28.8394 10.2287 29.003 10.1837 29.1984 10.1387C29.3939 10.0912 29.6088 10.0513 29.8384 10.0163C30.0705 9.9813 30.3123 9.94881 30.5688 9.92383C30.8302 9.89384 31.0891 9.88135 31.3505 9.88135ZM31.5313 16.6005C31.7511 16.6005 31.9637 16.5955 32.164 16.5855C32.3643 16.5755 32.5255 16.5605 32.6452 16.538V14.7964C32.5548 14.7764 32.418 14.7564 32.2372 14.7339C32.0565 14.7139 31.8904 14.7039 31.7389 14.7039C31.5288 14.7039 31.3285 14.7164 31.1429 14.7414C30.9572 14.7664 30.7936 14.8164 30.6543 14.8889C30.5126 14.9613 30.4027 15.0588 30.3221 15.1812C30.2415 15.3036 30.2024 15.4586 30.2024 15.6435C30.2024 16.0033 30.3197 16.2532 30.5566 16.3906C30.796 16.533 31.1209 16.6005 31.5313 16.6005Z" fill="#F9F9F9"/>
<path d="M36.761 8.07734L39.0059 7.70752V10.0963H41.7027V12.0079H39.0059V14.859C39.0059 15.3412 39.0889 15.7285 39.2551 16.0159C39.4212 16.3032 39.7558 16.4482 40.2566 16.4482C40.4984 16.4482 40.7451 16.4257 41.0016 16.3782C41.2581 16.3332 41.4902 16.2683 41.7027 16.1858L42.0203 17.9749C41.7491 18.0874 41.4487 18.1848 41.1164 18.2673C40.7842 18.3497 40.3787 18.3897 39.8951 18.3897C39.2819 18.3897 38.7738 18.3047 38.3732 18.1348C37.9702 17.9649 37.6502 17.73 37.4083 17.4252C37.1665 17.1228 36.9979 16.7555 36.9027 16.3232C36.8074 15.8909 36.7585 15.4137 36.7585 14.8889L36.761 8.07734Z" fill="#F9F9F9"/>
<path d="M46.0732 9.88135C46.7352 9.88135 47.2897 9.95881 47.7318 10.1137C48.1739 10.2687 48.5281 10.4885 48.7944 10.7759C49.0607 11.0633 49.2488 11.4131 49.3587 11.8254C49.4686 12.2377 49.5248 12.6949 49.5248 13.1972V17.9748C49.2023 18.0473 48.7553 18.1322 48.1837 18.2297C47.6121 18.3271 46.9184 18.3771 46.1049 18.3771C45.5919 18.3771 45.1278 18.3296 44.7101 18.2372C44.2924 18.1447 43.9333 17.9923 43.6328 17.7824C43.3324 17.5725 43.1003 17.2977 42.9391 16.9578C42.7779 16.618 42.6973 16.2032 42.6973 15.7084C42.6973 15.2362 42.7901 14.8339 42.9757 14.5065C43.1614 14.1767 43.4106 13.9168 43.7208 13.7194C44.031 13.5245 44.3877 13.3821 44.7907 13.2946C45.1913 13.2072 45.609 13.1647 46.0414 13.1647C46.3321 13.1647 46.591 13.1772 46.8182 13.2022C47.0454 13.2272 47.2286 13.2622 47.3678 13.3021V13.0872C47.3678 12.6974 47.253 12.3826 47.021 12.1477C46.7889 11.9103 46.3883 11.7929 45.8142 11.7929C45.4332 11.7929 45.0545 11.8204 44.6832 11.8779C44.3119 11.9353 43.9895 12.0153 43.7183 12.1177L43.4325 10.2687C43.562 10.2287 43.7257 10.1837 43.9211 10.1387C44.1165 10.0912 44.3315 10.0513 44.5611 10.0163C44.7932 9.9813 45.035 9.94881 45.2915 9.92383C45.5529 9.89384 45.8118 9.88135 46.0732 9.88135ZM46.2539 16.6005C46.4738 16.6005 46.6863 16.5955 46.8866 16.5855C47.0869 16.5755 47.2481 16.5605 47.3678 16.538V14.7964C47.2774 14.7764 47.1407 14.7564 46.9599 14.7339C46.7791 14.7139 46.613 14.7039 46.4616 14.7039C46.2515 14.7039 46.0512 14.7164 45.8655 14.7414C45.6799 14.7664 45.5162 14.8164 45.377 14.8889C45.2353 14.9613 45.1254 15.0588 45.0448 15.1812C44.9642 15.3036 44.9251 15.4586 44.9251 15.6435C44.9251 16.0033 45.0423 16.2532 45.2793 16.3906C45.5187 16.533 45.8435 16.6005 46.2539 16.6005Z" fill="#F9F9F9"/>
<path d="M54.6642 6.24316C55.0868 6.24316 55.4312 6.27565 55.6975 6.34311C55.9637 6.41058 56.1372 6.46805 56.2178 6.52052L56.0224 7.3851C55.9125 7.33262 55.7488 7.28015 55.5338 7.22268C55.3189 7.1652 55.0453 7.13772 54.7131 7.13772C54.0193 7.13772 53.5259 7.31763 53.2278 7.67745C52.9323 8.03727 52.7833 8.61198 52.7833 9.40409V10.2362H55.9173V11.0833H52.7833V18.2047H51.8037V9.37161C51.8037 8.33462 52.0382 7.55251 52.5048 7.02777C52.9689 6.50553 53.6895 6.24316 54.6642 6.24316Z" fill="#F9F9F9"/>
<path d="M59.8329 10.0488C60.3459 10.0488 60.7807 10.1238 61.1374 10.2712C61.494 10.4211 61.7823 10.626 62.0046 10.8884C62.2244 11.1508 62.3856 11.4606 62.4858 11.8204C62.5859 12.1803 62.6372 12.5701 62.6372 12.9924V18.0174C62.5371 18.0474 62.3905 18.0823 62.2 18.1173C62.0094 18.1523 61.7871 18.1923 61.538 18.2323C61.2864 18.2722 61.0079 18.3072 60.7026 18.3322C60.3972 18.3572 60.0821 18.3697 59.7597 18.3697C59.3468 18.3697 58.9682 18.3222 58.6213 18.2298C58.2744 18.1373 57.974 17.9899 57.7175 17.79C57.461 17.5901 57.2607 17.3327 57.1141 17.0204C56.9676 16.708 56.8967 16.3232 56.8967 15.8709C56.8967 15.4386 56.9773 15.0688 57.1386 14.7615C57.2998 14.4541 57.5245 14.1993 57.8177 13.9994C58.1083 13.7995 58.4552 13.652 58.8583 13.5596C59.2589 13.4671 59.6961 13.4222 60.17 13.4222C60.3117 13.4222 60.4583 13.4296 60.6146 13.4446C60.771 13.4596 60.92 13.4796 61.0665 13.5071C61.2131 13.5321 61.3377 13.5596 61.4427 13.5846C61.5478 13.6096 61.621 13.6345 61.6601 13.6545V13.1623C61.6601 12.8849 61.6406 12.6151 61.5991 12.3527C61.56 12.0903 61.472 11.8554 61.3352 11.643C61.1984 11.4331 61.0079 11.2632 60.7636 11.1333C60.5169 11.0059 60.1945 10.9409 59.7914 10.9409C59.2198 10.9409 58.7923 10.9834 58.5114 11.0633C58.2305 11.1458 58.0228 11.2132 57.8934 11.2632L57.7566 10.3837C57.9276 10.3012 58.1914 10.2237 58.548 10.1538C58.8998 10.0863 59.3297 10.0488 59.8329 10.0488ZM59.9233 17.4801C60.3044 17.4801 60.6391 17.4676 60.9249 17.4427C61.2107 17.4177 61.4549 17.3827 61.6552 17.3427V14.5366C61.5453 14.4841 61.3694 14.4316 61.1276 14.3742C60.8858 14.3167 60.556 14.2892 60.1334 14.2892C59.8916 14.2892 59.64 14.3067 59.381 14.3442C59.1197 14.3792 58.8778 14.4566 58.658 14.5741C58.4357 14.6915 58.2549 14.8539 58.1157 15.0588C57.974 15.2637 57.9056 15.5361 57.9056 15.8759C57.9056 16.1733 57.952 16.4257 58.0497 16.6306C58.145 16.8355 58.2818 17.0004 58.4577 17.1228C58.6335 17.2452 58.8436 17.3352 59.0903 17.3927C59.3322 17.4526 59.6106 17.4801 59.9233 17.4801Z" fill="#F9F9F9"/>
<path d="M65.1362 10.5138C65.4269 10.4314 65.8202 10.3389 66.3112 10.2365C66.8022 10.134 67.4056 10.0815 68.1188 10.0815C68.7124 10.0815 69.2059 10.169 69.6041 10.3439C69.9998 10.5188 70.3173 10.7687 70.5543 11.091C70.7912 11.4159 70.9598 11.8032 71.0599 12.2555C71.1601 12.7077 71.2114 13.205 71.2114 13.7497V18.205H70.2318V14.0746C70.2318 13.5098 70.1952 13.0326 70.1195 12.6403C70.0437 12.2505 69.9192 11.9306 69.7433 11.6832C69.5674 11.4359 69.3353 11.2585 69.0495 11.151C68.7637 11.0436 68.4046 10.9886 67.9723 10.9886C67.5106 10.9886 67.11 11.0136 66.7753 11.0661C66.4382 11.1185 66.2208 11.1635 66.1207 11.2035V18.2025H65.1411V10.5138H65.1362Z" fill="#F9F9F9"/>
<path d="M76.0776 10.0488C76.5906 10.0488 77.0254 10.1238 77.382 10.2712C77.7387 10.4211 78.0269 10.626 78.2492 10.8884C78.4715 11.1508 78.6303 11.4606 78.7304 11.8204C78.8306 12.1803 78.8819 12.5701 78.8819 12.9924V18.0174C78.7817 18.0474 78.6351 18.0823 78.4446 18.1173C78.2541 18.1523 78.0318 18.1923 77.7826 18.2323C77.531 18.2722 77.2525 18.3072 76.9472 18.3322C76.6418 18.3572 76.3267 18.3697 76.0043 18.3697C75.5915 18.3697 75.2128 18.3222 74.866 18.2298C74.5191 18.1373 74.2186 17.9899 73.9621 17.79C73.7056 17.5901 73.5053 17.3327 73.3588 17.0204C73.2122 16.708 73.1414 16.3232 73.1414 15.8709C73.1414 15.4386 73.222 15.0688 73.3832 14.7615C73.5444 14.4541 73.7692 14.1993 74.0623 13.9994C74.353 13.7995 74.6998 13.652 75.1029 13.5596C75.5035 13.4671 75.9408 13.4222 76.4147 13.4222C76.5564 13.4222 76.7029 13.4296 76.8593 13.4446C77.0156 13.4596 77.1646 13.4796 77.3112 13.5071C77.4577 13.5321 77.5823 13.5596 77.6874 13.5846C77.7924 13.6096 77.8657 13.6345 77.9048 13.6545V13.1623C77.9048 12.8849 77.8852 12.6151 77.8437 12.3527C77.8022 12.0903 77.7167 11.8554 77.5799 11.643C77.4455 11.4331 77.2525 11.2632 77.0083 11.1333C76.7615 11.0059 76.4391 10.9409 76.036 10.9409C75.4644 10.9409 75.0369 10.9834 74.756 11.0633C74.4751 11.1458 74.2675 11.2132 74.138 11.2632L74.0012 10.3837C74.1722 10.3012 74.436 10.2237 74.7927 10.1538C75.1444 10.0863 75.5744 10.0488 76.0776 10.0488ZM76.168 17.4801C76.549 17.4801 76.8837 17.4676 77.1695 17.4427C77.4553 17.4177 77.6996 17.3827 77.8999 17.3427V14.5366C77.7899 14.4841 77.6141 14.4316 77.3722 14.3742C77.1304 14.3167 76.8006 14.2892 76.378 14.2892C76.1362 14.2892 75.8846 14.3067 75.6257 14.3442C75.3643 14.3792 75.1224 14.4566 74.9026 14.5741C74.6803 14.6915 74.4995 14.8539 74.3603 15.0588C74.2186 15.2637 74.1502 15.5361 74.1502 15.8759C74.1502 16.1733 74.1966 16.4257 74.2943 16.6306C74.3896 16.8355 74.5264 17.0004 74.7023 17.1228C74.8782 17.2452 75.0882 17.3352 75.335 17.3927C75.5768 17.4526 75.8553 17.4801 76.168 17.4801Z" fill="#F9F9F9"/>
<path d="M82.2991 10.2363H85.4039V11.0833H82.2991V15.3212C82.2991 15.7735 82.3358 16.1408 82.4115 16.4232C82.4872 16.7055 82.5947 16.9229 82.7364 17.0779C82.8781 17.2328 83.0466 17.3352 83.2494 17.3852C83.4497 17.4377 83.672 17.4627 83.9113 17.4627C84.3242 17.4627 84.6539 17.4127 84.9056 17.3152C85.1572 17.2178 85.3526 17.1278 85.4943 17.0454L85.7361 17.8775C85.5944 17.9699 85.3501 18.0749 84.9984 18.1923C84.6466 18.3097 84.2655 18.3697 83.8527 18.3697C83.3715 18.3697 82.966 18.3047 82.6387 18.1773C82.3113 18.0499 82.05 17.855 81.8545 17.5926C81.6591 17.3302 81.5199 17.0054 81.4393 16.6131C81.3587 16.2233 81.3196 15.761 81.3196 15.2263V7.89243L82.2991 7.70752V10.2363Z" fill="#F9F9F9"/>
<path d="M88.4185 7.83016C88.4185 8.06755 88.3477 8.25495 88.2084 8.39238C88.0668 8.53231 87.8958 8.59978 87.6955 8.59978C87.4952 8.59978 87.3242 8.52982 87.1825 8.39238C87.0408 8.25495 86.9724 8.06755 86.9724 7.83016C86.9724 7.59278 87.0432 7.40538 87.1825 7.26794C87.3242 7.12801 87.4927 7.06055 87.6955 7.06055C87.8958 7.06055 88.0668 7.13051 88.2084 7.26794C88.3477 7.40538 88.4185 7.59528 88.4185 7.83016ZM88.1913 18.205H87.2118V10.2365H88.1913V18.205Z" fill="#F9F9F9"/>
<path d="M94.0099 18.3751C93.4065 18.3751 92.874 18.2776 92.4123 18.0827C91.9506 17.8878 91.5671 17.6079 91.2593 17.2431C90.954 16.8783 90.7195 16.441 90.5582 15.9338C90.397 15.424 90.3164 14.8618 90.3164 14.2471C90.3164 13.6199 90.3995 13.0502 90.5656 12.5355C90.7317 12.0207 90.9711 11.5784 91.2813 11.2086C91.5915 10.8388 91.9702 10.5539 92.4123 10.354C92.8544 10.1541 93.3528 10.0542 93.9048 10.0542C94.3274 10.0542 94.7207 10.0892 95.0871 10.1616C95.4535 10.2341 95.7369 10.3266 95.9396 10.439L95.6831 11.3011C95.4828 11.1986 95.2557 11.1162 95.0041 11.0537C94.7525 10.9912 94.4154 10.9612 93.9952 10.9612C93.1305 10.9612 92.4758 11.2461 92.0288 11.8158C91.5818 12.3855 91.357 13.1951 91.357 14.2446C91.357 14.7169 91.4083 15.1517 91.5085 15.5465C91.6086 15.9413 91.7723 16.2811 91.997 16.5635C92.2242 16.8458 92.5149 17.0682 92.8715 17.2256C93.2282 17.3855 93.663 17.4655 94.176 17.4655C94.5986 17.4655 94.9528 17.4155 95.2386 17.3181C95.5244 17.2206 95.7345 17.1357 95.8639 17.0632L96.074 17.9278C95.8932 18.0302 95.6099 18.1302 95.2215 18.2276C94.8355 18.3251 94.43 18.3751 94.0099 18.3751Z" fill="#F9F9F9"/>
<path d="M99.313 17.4952C99.8749 17.4952 100.339 17.4002 100.708 17.2103C101.074 17.0204 101.257 16.7006 101.257 16.2458C101.257 16.0309 101.226 15.846 101.16 15.6911C101.094 15.5362 100.986 15.3987 100.835 15.2738C100.683 15.1513 100.486 15.0314 100.239 14.919C99.9921 14.8065 99.6892 14.6716 99.3277 14.5192C99.037 14.3967 98.761 14.2693 98.4996 14.1418C98.2382 14.0144 98.0062 13.8645 97.8059 13.6946C97.6055 13.5247 97.4443 13.3223 97.3246 13.0849C97.2049 12.8475 97.1439 12.5601 97.1439 12.2203C97.1439 11.5731 97.3833 11.0484 97.8596 10.6486C98.3359 10.2488 98.993 10.0464 99.826 10.0464C100.359 10.0464 100.798 10.0939 101.145 10.1863C101.492 10.2788 101.736 10.3612 101.875 10.4337L101.648 11.3282C101.529 11.2658 101.323 11.1833 101.038 11.0809C100.752 10.9784 100.332 10.9259 99.7796 10.9259C99.5573 10.9259 99.3497 10.9484 99.1543 10.9959C98.9588 11.0434 98.7854 11.1134 98.634 11.2133C98.4825 11.3108 98.3628 11.4357 98.2724 11.5831C98.182 11.7305 98.1381 11.9155 98.1381 12.1303C98.1381 12.3477 98.1772 12.5326 98.2578 12.6876C98.3384 12.8425 98.4556 12.9799 98.612 13.0974C98.7683 13.2148 98.9588 13.3273 99.1836 13.4297C99.4083 13.5321 99.6672 13.6446 99.9604 13.767C100.261 13.8895 100.552 14.0144 100.828 14.1418C101.104 14.2693 101.348 14.4242 101.558 14.6041C101.768 14.784 101.939 14.9989 102.071 15.2513C102.2 15.5037 102.266 15.8185 102.266 16.1983C102.266 16.918 102.003 17.4627 101.475 17.8325C100.947 18.2023 100.227 18.3872 99.313 18.3872C98.6291 18.3872 98.1063 18.3273 97.7448 18.2098C97.3833 18.0924 97.1414 18.0024 97.0217 17.94L97.2782 17.0304C97.3075 17.0504 97.3735 17.0854 97.4736 17.1304C97.5738 17.1753 97.7106 17.2278 97.8816 17.2853C98.0526 17.3428 98.2553 17.3902 98.4923 17.4327C98.7292 17.4752 99.0028 17.4952 99.313 17.4952Z" fill="#F9F9F9"/>
<path d="M105.552 17.5424C105.552 17.7798 105.479 17.9797 105.335 18.1446C105.188 18.3096 104.985 18.392 104.724 18.392C104.463 18.392 104.26 18.3096 104.113 18.1446C103.967 17.9797 103.896 17.7798 103.896 17.5424C103.896 17.3051 103.969 17.1052 104.113 16.9402C104.26 16.7753 104.463 16.6929 104.724 16.6929C104.985 16.6929 105.188 16.7753 105.335 16.9402C105.479 17.1052 105.552 17.3051 105.552 17.5424Z" fill="#F9F9F9"/>
<path d="M107.873 10.5138C108.163 10.4314 108.557 10.3389 109.048 10.2365C109.539 10.134 110.142 10.0815 110.855 10.0815C111.449 10.0815 111.942 10.169 112.34 10.3439C112.736 10.5188 113.054 10.7687 113.291 11.091C113.528 11.4159 113.696 11.8032 113.796 12.2555C113.896 12.7077 113.948 13.205 113.948 13.7497V18.205H112.968V14.0746C112.968 13.5098 112.932 13.0326 112.856 12.6403C112.78 12.2505 112.656 11.9306 112.48 11.6832C112.304 11.4359 112.072 11.2585 111.786 11.151C111.5 11.0436 111.141 10.9886 110.709 10.9886C110.247 10.9886 109.846 11.0136 109.512 11.0661C109.175 11.1185 108.957 11.1635 108.857 11.2035V18.2025H107.877V10.5138H107.873Z" fill="#F9F9F9"/>
<path d="M118.42 18.3446C118.088 18.3346 117.8 18.2897 117.553 18.2147C117.306 18.1372 117.101 18.0198 116.935 17.8599C116.769 17.7 116.644 17.4951 116.559 17.2427C116.473 16.9903 116.432 16.6755 116.432 16.2957V6.42807L117.411 6.24316V16.2632C117.411 16.5105 117.433 16.708 117.48 16.8579C117.526 17.0078 117.592 17.1252 117.683 17.2127C117.773 17.3002 117.89 17.3651 118.037 17.4051C118.183 17.4476 118.357 17.4826 118.557 17.5126L118.42 18.3446Z" fill="#F9F9F9"/>
<path d="M123.015 16.4706C123.015 16.758 122.969 17.0128 122.878 17.2352C122.788 17.4576 122.666 17.6475 122.514 17.8024C122.363 17.9574 122.187 18.0748 121.987 18.1573C121.787 18.2397 121.576 18.2797 121.359 18.2797C121.142 18.2797 120.932 18.2397 120.731 18.1573C120.531 18.0748 120.355 17.9574 120.204 17.8024C120.052 17.6475 119.93 17.4576 119.84 17.2352C119.749 17.0128 119.703 16.758 119.703 16.4706C119.703 16.1882 119.749 15.9334 119.84 15.7085C119.93 15.4836 120.052 15.2937 120.204 15.1413C120.355 14.9888 120.531 14.8714 120.731 14.7889C120.932 14.7065 121.142 14.6665 121.359 14.6665C121.576 14.6665 121.787 14.7065 121.987 14.7889C122.187 14.8714 122.363 14.9888 122.514 15.1413C122.666 15.2937 122.788 15.4836 122.878 15.7085C122.969 15.9334 123.015 16.1882 123.015 16.4706ZM122.727 16.4706C122.727 16.2407 122.693 16.0308 122.624 15.8409C122.556 15.651 122.461 15.4886 122.341 15.3537C122.221 15.2187 122.077 15.1138 121.909 15.0413C121.74 14.9689 121.557 14.9314 121.359 14.9314C121.161 14.9314 120.978 14.9689 120.809 15.0413C120.641 15.1138 120.497 15.2187 120.377 15.3537C120.257 15.4886 120.162 15.651 120.094 15.8409C120.025 16.0308 119.991 16.2407 119.991 16.4706C119.991 16.7005 120.025 16.9104 120.094 17.1003C120.162 17.2902 120.257 17.4526 120.377 17.5876C120.497 17.7225 120.641 17.8274 120.809 17.9024C120.978 17.9774 121.161 18.0148 121.359 18.0148C121.557 18.0148 121.74 17.9774 121.909 17.9024C122.077 17.8274 122.221 17.7225 122.341 17.5876C122.461 17.4526 122.556 17.2902 122.624 17.1003C122.693 16.9104 122.727 16.7005 122.727 16.4706ZM121.887 17.4601C121.801 17.3027 121.713 17.1553 121.623 17.0128C121.533 16.8704 121.452 16.758 121.383 16.6755C121.362 16.678 121.34 16.6805 121.32 16.6805C121.3 16.6805 121.283 16.6805 121.266 16.6805H120.958V17.4601H120.69V15.5261C120.765 15.5086 120.849 15.4961 120.941 15.4861C121.034 15.4761 121.122 15.4711 121.203 15.4711C121.479 15.4711 121.691 15.5236 121.835 15.626C121.98 15.7285 122.053 15.8859 122.053 16.0958C122.053 16.2157 122.021 16.3232 121.955 16.4181C121.889 16.5131 121.794 16.5831 121.667 16.6305C121.694 16.6605 121.728 16.7055 121.772 16.768C121.816 16.8304 121.862 16.8979 121.911 16.9754C121.96 17.0528 122.009 17.1328 122.058 17.2202C122.107 17.3077 122.148 17.3877 122.185 17.4601H121.887ZM120.958 16.4556H121.203C121.283 16.4556 121.359 16.4506 121.427 16.4406C121.496 16.4306 121.554 16.4106 121.606 16.3831C121.657 16.3557 121.696 16.3182 121.723 16.2707C121.75 16.2232 121.765 16.1633 121.765 16.0908C121.765 16.0208 121.75 15.9609 121.718 15.9134C121.686 15.8659 121.647 15.8259 121.596 15.7959C121.545 15.766 121.489 15.7435 121.423 15.731C121.357 15.7185 121.288 15.711 121.217 15.711C121.169 15.711 121.122 15.711 121.078 15.7135C121.034 15.716 120.995 15.7185 120.958 15.721V16.4556Z" fill="#F9F9F9"/>
<path d="M17.3975 4.19936V0.321289C16.2738 0.323788 15.2478 0.531185 14.3416 0.913495C14.3367 0.915994 14.3293 0.918492 14.3245 0.920991V12.3003V12.3028C14.686 11.0085 15.7266 10.1764 17.1337 10.1714V6.44824C16.1223 6.45074 15.1941 6.63315 14.3635 6.95798C14.581 5.30631 15.7462 4.20436 17.3975 4.19936Z" fill="#F9F9F9"/>
<path d="M10.2376 7.69013C9.48039 6.61067 8.12465 5.91602 6.4196 5.91602C3.57621 5.91602 0 8.04995 0 13.1199C0 17.2754 2.98018 20.3213 7.20372 20.3213C7.68739 20.3213 8.15152 20.2814 8.59855 20.2064V16.1384C8.1906 16.3358 7.72159 16.4458 7.20372 16.4458C5.36188 16.4458 4.11607 15.0889 4.11607 13.1224C4.11607 11.1559 5.36188 9.79908 7.20372 9.79908C8.79641 9.79908 9.97382 10.891 10.2596 12.4453V7.73011L10.2376 7.69013Z" fill="#F9F9F9"/>
<path d="M11.7303 2.91996C10.8753 4.0419 10.3404 5.49368 10.2598 7.20033V7.20283V7.73007V12.4452V12.7501V19.7566V19.7591C10.846 19.5117 11.381 19.1919 11.8549 18.8021C12.5853 18.2048 13.2009 17.3728 13.6357 16.4407C14.0705 15.5062 14.3245 14.4717 14.3245 13.4672V12.3028V12.3003V0.920956V0.918457C13.2815 1.36074 12.3996 2.0404 11.7303 2.91996Z" fill="#F9F9F9"/>
</svg>
