<svg width="598" height="65" viewBox="0 0 598 65" fill="none" xmlns="http://www.w3.org/2000/svg">
<g clip-path="url(#clip0_103_673)">
<path fill-rule="evenodd" clip-rule="evenodd" d="M40.0001 0.821289C40.0001 14.0761 50.7453 24.8213 64.0001 24.8213V30.9751C47.3466 30.9751 33.8463 17.4748 33.8463 0.821289H40.0001ZM40.0001 64.8212C40.0001 51.5664 50.7453 40.8212 64.0001 40.8212V34.6674C47.3466 34.6674 33.8463 48.1677 33.8463 64.8212H40.0001ZM0 40.8212C13.2548 40.8212 24 51.5664 24 64.8212H30.1538C30.1538 48.1677 16.6535 34.6674 0 34.6674V40.8212ZM24 0.821289C24 14.0761 13.2548 24.8213 0 24.8213V30.9751C16.6535 30.9751 30.1538 17.4748 30.1538 0.821289H24Z" fill="#F9F9F9"/>
</g>
<g clip-path="url(#clip1_103_673)">
<path d="M91.58 26.3212H93.76V18.7212H87.74V20.9612H91.18V21.0412C91.18 22.6212 89.72 24.2812 87.5 24.2812C85.04 24.2812 83.5 22.1412 83.5 19.2212C83.5 16.3812 84.84 14.1412 87.54 14.1412C89.38 14.1412 90.44 15.1412 90.76 16.5212H93.6C93.14 13.7212 91.08 11.7412 87.48 11.7412C85.56 11.7412 84.04 12.3212 82.88 13.3812C81.38 14.7612 80.54 16.8412 80.54 19.2212C80.54 21.3812 81.22 23.2212 82.4 24.5412C83.58 25.8412 85.26 26.6212 87.42 26.6212C89.12 26.6212 90.46 26.0412 91.44 24.4012H91.48L91.58 26.3212ZM95.5675 26.3212H98.2875V16.0612H95.5675V26.3212ZM95.5675 14.4612H98.2875V12.0212H95.5675V14.4612ZM102.7 16.0612H100.04V26.3212H102.76V20.5012C102.76 19.1012 103.64 18.1412 104.84 18.1412C105.98 18.1412 106.62 18.9212 106.62 20.0212V26.3212H109.34V19.6212C109.34 17.3812 107.92 15.7812 105.8 15.7812C104.4 15.7812 103.46 16.3612 102.76 17.4612H102.7V16.0612ZM111.017 26.3212H113.737V16.0612H111.017V26.3212ZM111.017 14.4612H113.737V12.0212H111.017V14.4612ZM125.329 26.6212C127.309 26.6212 128.689 26.0212 129.669 25.1012C130.629 24.2012 131.169 22.9812 131.249 21.7212H128.409C128.229 23.2212 127.029 24.2412 125.329 24.2412C122.929 24.2412 121.409 22.1412 121.409 19.2212C121.409 16.3812 122.669 14.1812 125.309 14.1812C126.989 14.1812 128.069 15.1212 128.329 16.5612H131.209C130.909 13.8412 128.829 11.7412 125.309 11.7412C121.089 11.7412 118.449 14.9812 118.449 19.2212C118.449 23.5212 121.309 26.6212 125.329 26.6212ZM138.981 26.3212H141.601V26.2212C141.361 26.0412 141.241 25.5812 141.241 24.8012V19.5812C141.241 17.1812 140.001 15.8012 136.921 15.8012C133.921 15.8012 132.581 17.3812 132.501 19.1812H134.921C135.001 18.2012 135.621 17.7412 136.901 17.7412C138.041 17.7412 138.621 18.2212 138.621 18.9612C138.621 19.7412 137.841 19.8812 136.141 20.1212C133.861 20.4412 132.021 21.1612 132.021 23.4212C132.021 25.4612 133.501 26.5612 135.601 26.5612C137.361 26.5612 138.101 25.9612 138.621 25.1812H138.661C138.721 25.6412 138.821 26.1212 138.981 26.3212ZM136.261 24.6612C135.301 24.6612 134.661 24.3212 134.661 23.3612C134.661 22.4012 135.361 22.0812 136.781 21.7612C137.461 21.6012 138.201 21.4412 138.681 21.1612V22.7012C138.681 23.7012 137.821 24.6612 136.261 24.6612ZM142.97 29.6812H145.69V25.1612H145.73C146.31 26.0412 147.25 26.6212 148.69 26.6212C151.33 26.6212 153.13 24.5212 153.13 21.2012C153.13 18.0012 151.39 15.7812 148.67 15.7812C147.27 15.7812 146.31 16.4412 145.65 17.3412H145.59V16.0612H142.97V29.6812ZM148.11 24.3612C146.49 24.3612 145.63 23.1412 145.63 21.2812C145.63 19.4412 146.31 17.9812 148.01 17.9812C149.69 17.9812 150.37 19.3412 150.37 21.2812C150.37 23.2212 149.49 24.3612 148.11 24.3612ZM154.396 26.3212H157.116V16.0612H154.396V26.3212ZM154.396 14.4612H157.116V12.0212H154.396V14.4612ZM158.268 17.8612H159.688V23.8812C159.688 25.8212 161.148 26.3412 162.468 26.3412C163.548 26.3412 164.168 26.3012 164.168 26.3012V24.3012C164.168 24.3012 163.708 24.3212 163.368 24.3212C162.768 24.3212 162.348 24.0612 162.348 23.3012V17.8612H164.108V16.0612H162.348V12.8612H159.688V16.0612H158.268V17.8612ZM172.067 26.3212H174.687V26.2212C174.447 26.0412 174.327 25.5812 174.327 24.8012V19.5812C174.327 17.1812 173.087 15.8012 170.007 15.8012C167.007 15.8012 165.667 17.3812 165.587 19.1812H168.007C168.087 18.2012 168.707 17.7412 169.987 17.7412C171.127 17.7412 171.707 18.2212 171.707 18.9612C171.707 19.7412 170.927 19.8812 169.227 20.1212C166.947 20.4412 165.107 21.1612 165.107 23.4212C165.107 25.4612 166.587 26.5612 168.687 26.5612C170.447 26.5612 171.187 25.9612 171.707 25.1812H171.747C171.807 25.6412 171.907 26.1212 172.067 26.3212ZM169.347 24.6612C168.387 24.6612 167.747 24.3212 167.747 23.3612C167.747 22.4012 168.447 22.0812 169.867 21.7612C170.547 21.6012 171.287 21.4412 171.767 21.1612V22.7012C171.767 23.7012 170.907 24.6612 169.347 24.6612ZM176.096 26.3212H178.816V12.0212H176.096V26.3212ZM81.1 50.3212H86.44C88.24 50.3212 89.62 49.8212 90.68 48.9412C92.18 47.6812 92.96 45.6412 92.96 43.3212C92.96 39.1012 90.5 36.0212 86.68 36.0212H81.1V50.3212ZM84 47.8212V38.5012H86.32C88.78 38.5012 90.02 40.4812 90.02 43.3212C90.02 46.1612 88.96 47.8212 86.24 47.8212H84ZM99.1375 50.6212C101.778 50.6212 103.398 49.0812 103.778 47.2612H101.098C100.798 48.0412 100.178 48.5212 99.1175 48.5212C97.5775 48.5212 96.6975 47.5412 96.4975 45.9612H103.938C103.938 42.3012 102.178 39.7812 98.8775 39.7812C95.8775 39.7812 93.8175 42.1412 93.8175 45.1812C93.8175 48.2412 95.7375 50.6212 99.1375 50.6212ZM98.9175 41.8812C100.158 41.8812 101.018 42.7812 101.098 44.0812H96.5375C96.7775 42.7412 97.4775 41.8812 98.9175 41.8812ZM111.216 40.0612H108.556V50.3212H111.276V44.5012C111.276 43.1012 112.156 42.1412 113.356 42.1412C114.496 42.1412 115.136 42.9212 115.136 44.0212V50.3212H117.856V43.6212C117.856 41.3812 116.436 39.7812 114.316 39.7812C112.916 39.7812 111.976 40.3612 111.276 41.4612H111.216V40.0612ZM119.532 50.3212H122.252V40.0612H119.532V50.3212ZM119.532 38.4612H122.252V36.0212H119.532V38.4612ZM128.825 50.6212C131.465 50.6212 133.085 49.0812 133.465 47.2612H130.785C130.485 48.0412 129.865 48.5212 128.805 48.5212C127.265 48.5212 126.385 47.5412 126.185 45.9612H133.625C133.625 42.3012 131.865 39.7812 128.565 39.7812C125.565 39.7812 123.505 42.1412 123.505 45.1812C123.505 48.2412 125.425 50.6212 128.825 50.6212ZM128.605 41.8812C129.845 41.8812 130.705 42.7812 130.785 44.0812H126.225C126.465 42.7412 127.165 41.8812 128.605 41.8812ZM143.984 50.3212V40.0612H141.264V45.9812C141.264 47.3412 140.484 48.3012 139.204 48.3012C138.044 48.3012 137.504 47.6412 137.504 46.4412V40.0612H134.804V46.9012C134.804 49.1412 136.084 50.6012 138.364 50.6012C139.804 50.6012 140.604 50.0612 141.304 49.1212H141.364V50.3212H143.984ZM147.943 50.3212H150.403L151.803 45.2812C152.023 44.4612 152.283 43.5012 152.283 43.5012H152.323C152.323 43.5012 152.563 44.4612 152.783 45.2812L154.143 50.3212H156.623L159.683 40.0612H157.043L155.743 44.8212C155.523 45.6612 155.283 46.7412 155.283 46.7412H155.243C155.243 46.7412 154.983 45.6612 154.763 44.8012L153.423 40.0612H151.103L149.823 44.8012C149.603 45.6412 149.383 46.7412 149.383 46.7412H149.343C149.343 46.7412 149.103 45.6612 148.883 44.8212L147.643 40.0612H144.943L147.943 50.3212ZM165.173 50.6212C167.813 50.6212 169.433 49.0812 169.813 47.2612H167.133C166.833 48.0412 166.213 48.5212 165.153 48.5212C163.613 48.5212 162.733 47.5412 162.533 45.9612H169.973C169.973 42.3012 168.213 39.7812 164.913 39.7812C161.913 39.7812 159.853 42.1412 159.853 45.1812C159.853 48.2412 161.773 50.6212 165.173 50.6212ZM164.953 41.8812C166.193 41.8812 167.053 42.7812 167.133 44.0812H162.573C162.813 42.7412 163.513 41.8812 164.953 41.8812ZM173.931 41.9412H175.331V50.3212H178.051V41.9412H179.891V40.0612H178.051V39.3012C178.051 38.2412 178.611 38.0812 179.891 38.1412V36.0412C177.271 35.7612 175.331 36.6412 175.331 39.1412V40.0612H173.931V41.9412ZM181.111 50.3212H183.831V40.0612H181.111V50.3212ZM181.111 38.4612H183.831V36.0212H181.111V38.4612ZM188.247 40.0612H185.587V50.3212H188.307V44.5012C188.307 43.1012 189.187 42.1412 190.387 42.1412C191.527 42.1412 192.167 42.9212 192.167 44.0212V50.3212H194.887V43.6212C194.887 41.3812 193.467 39.7812 191.347 39.7812C189.947 39.7812 189.007 40.3612 188.307 41.4612H188.247V40.0612ZM203.024 50.3212H205.644V50.2212C205.404 50.0412 205.284 49.5812 205.284 48.8012V43.5812C205.284 41.1812 204.044 39.8012 200.964 39.8012C197.964 39.8012 196.624 41.3812 196.544 43.1812H198.964C199.044 42.2012 199.664 41.7412 200.944 41.7412C202.084 41.7412 202.664 42.2212 202.664 42.9612C202.664 43.7412 201.884 43.8812 200.184 44.1212C197.904 44.4412 196.064 45.1612 196.064 47.4212C196.064 49.4612 197.544 50.5612 199.644 50.5612C201.404 50.5612 202.144 49.9612 202.664 49.1812H202.704C202.764 49.6412 202.864 50.1212 203.024 50.3212ZM200.304 48.6612C199.344 48.6612 198.704 48.3212 198.704 47.3612C198.704 46.4012 199.404 46.0812 200.824 45.7612C201.504 45.6012 202.244 45.4412 202.724 45.1612V46.7012C202.724 47.7012 201.864 48.6612 200.304 48.6612ZM209.673 40.0612H207.013V50.3212H209.733V44.5012C209.733 43.1012 210.613 42.1412 211.813 42.1412C212.953 42.1412 213.593 42.9212 213.593 44.0212V50.3212H216.313V43.6212C216.313 41.3812 214.893 39.7812 212.773 39.7812C211.373 39.7812 210.433 40.3612 209.733 41.4612H209.673V40.0612ZM222.749 50.6212C225.489 50.6212 227.189 48.8812 227.369 46.7012H224.749C224.569 47.8612 223.789 48.4412 222.689 48.4412C221.029 48.4412 220.249 47.1412 220.249 45.2012C220.249 43.2212 221.089 41.9612 222.729 41.9612C223.729 41.9612 224.429 42.6412 224.609 43.5412H227.269C226.909 41.3212 225.269 39.7812 222.609 39.7812C219.489 39.7812 217.489 42.1412 217.489 45.2012C217.489 48.2612 219.509 50.6212 222.749 50.6212ZM228.556 50.3212H231.276V40.0612H228.556V50.3212ZM228.556 38.4612H231.276V36.0212H228.556V38.4612ZM237.848 50.6212C240.488 50.6212 242.108 49.0812 242.488 47.2612H239.808C239.508 48.0412 238.888 48.5212 237.828 48.5212C236.288 48.5212 235.408 47.5412 235.208 45.9612H242.648C242.648 42.3012 240.888 39.7812 237.588 39.7812C234.588 39.7812 232.528 42.1412 232.528 45.1812C232.528 48.2412 234.448 50.6212 237.848 50.6212ZM237.628 41.8812C238.868 41.8812 239.728 42.7812 239.808 44.0812H235.248C235.488 42.7412 236.188 41.8812 237.628 41.8812ZM238.548 38.7012H241.108V36.4212H238.548V38.7012ZM234.088 38.7012H236.648V36.4212H234.088V38.7012ZM243.947 50.3212H246.667V36.0212H243.947V50.3212ZM253.278 50.6212C255.918 50.6212 257.538 49.0812 257.918 47.2612H255.238C254.938 48.0412 254.318 48.5212 253.258 48.5212C251.718 48.5212 250.838 47.5412 250.638 45.9612H258.078C258.078 42.3012 256.318 39.7812 253.018 39.7812C250.018 39.7812 247.958 42.1412 247.958 45.1812C247.958 48.2412 249.878 50.6212 253.278 50.6212ZM253.058 41.8812C254.298 41.8812 255.158 42.7812 255.238 44.0812H250.678C250.918 42.7412 251.618 41.8812 253.058 41.8812ZM264.896 50.3212H267.356L268.756 45.2812C268.976 44.4612 269.236 43.5012 269.236 43.5012H269.276C269.276 43.5012 269.516 44.4612 269.736 45.2812L271.096 50.3212H273.576L276.636 40.0612H273.996L272.696 44.8212C272.476 45.6612 272.236 46.7412 272.236 46.7412H272.196C272.196 46.7412 271.936 45.6612 271.716 44.8012L270.376 40.0612H268.056L266.776 44.8012C266.556 45.6412 266.336 46.7412 266.336 46.7412H266.296C266.296 46.7412 266.056 45.6612 265.836 44.8212L264.596 40.0612H261.896L264.896 50.3212ZM282.126 50.6212C284.766 50.6212 286.386 49.0812 286.766 47.2612H284.086C283.786 48.0412 283.166 48.5212 282.106 48.5212C280.566 48.5212 279.686 47.5412 279.486 45.9612H286.926C286.926 42.3012 285.166 39.7812 281.866 39.7812C278.866 39.7812 276.806 42.1412 276.806 45.1812C276.806 48.2412 278.726 50.6212 282.126 50.6212ZM281.906 41.8812C283.146 41.8812 284.006 42.7812 284.086 44.0812H279.526C279.766 42.7412 280.466 41.8812 281.906 41.8812ZM290.805 40.0612H288.185V50.3212H290.905V45.3212C290.905 43.1612 292.185 42.2212 293.965 42.4012H294.025V40.0212C293.865 39.9612 293.685 39.9412 293.385 39.9412C292.185 39.9412 291.485 40.5412 290.865 41.7012H290.805V40.0612ZM299.723 50.6212C302.363 50.6212 303.983 49.0812 304.363 47.2612H301.683C301.383 48.0412 300.763 48.5212 299.703 48.5212C298.163 48.5212 297.283 47.5412 297.083 45.9612H304.523C304.523 42.3012 302.763 39.7812 299.463 39.7812C296.463 39.7812 294.403 42.1412 294.403 45.1812C294.403 48.2412 296.323 50.6212 299.723 50.6212ZM299.503 41.8812C300.743 41.8812 301.603 42.7812 301.683 44.0812H297.123C297.363 42.7412 298.063 41.8812 299.503 41.8812ZM305.822 50.3212H308.542V36.0212H305.822V50.3212ZM314.173 50.6212C315.613 50.6212 316.633 49.9612 317.233 48.9812H317.273V50.3212H319.893V36.0212H317.173V41.3012H317.113C316.553 40.4412 315.653 39.7812 314.213 39.7812C311.653 39.7812 309.833 42.0012 309.833 45.2012C309.833 48.5212 311.593 50.6212 314.173 50.6212ZM314.773 48.3412C313.373 48.3412 312.593 47.1812 312.593 45.2012C312.593 43.3012 313.353 41.9812 314.853 41.9812C316.593 41.9812 317.233 43.3012 317.233 45.2612C317.233 47.1412 316.393 48.3412 314.773 48.3412ZM330.741 50.6212C333.321 50.6212 335.081 48.5212 335.081 45.2012C335.081 42.0012 333.241 39.7812 330.661 39.7812C329.241 39.7812 328.361 40.4412 327.801 41.3012H327.741V36.0212H325.021V50.3212H327.641V49.0412H327.681C328.281 50.0012 329.301 50.6212 330.741 50.6212ZM330.141 48.3412C328.621 48.3412 327.681 47.1412 327.681 45.2612C327.681 43.3612 328.321 41.9812 330.041 41.9812C331.561 41.9812 332.321 43.3012 332.321 45.2012C332.321 47.1812 331.541 48.3412 330.141 48.3412ZM341.169 50.6212C343.809 50.6212 345.429 49.0812 345.809 47.2612H343.129C342.829 48.0412 342.209 48.5212 341.149 48.5212C339.609 48.5212 338.729 47.5412 338.529 45.9612H345.969C345.969 42.3012 344.209 39.7812 340.909 39.7812C337.909 39.7812 335.849 42.1412 335.849 45.1812C335.849 48.2412 337.769 50.6212 341.169 50.6212ZM340.949 41.8812C342.189 41.8812 343.049 42.7812 343.129 44.0812H338.569C338.809 42.7412 339.509 41.8812 340.949 41.8812ZM351.748 53.8212C353.268 53.8212 354.588 53.4612 355.448 52.6612C356.208 51.9612 356.668 50.9812 356.668 49.5412V40.0612H354.048V41.1412H354.008C353.388 40.2812 352.448 39.7812 351.168 39.7812C348.568 39.7812 346.728 41.7412 346.728 44.8012C346.728 47.9012 348.968 49.7012 351.248 49.7012C352.548 49.7012 353.328 49.1812 353.928 48.5012H353.988V49.6212C353.988 51.0212 353.248 51.7612 351.708 51.7612C350.448 51.7612 349.868 51.2612 349.648 50.6212H346.948C347.228 52.6212 348.948 53.8212 351.748 53.8212ZM351.708 47.5212C350.308 47.5212 349.388 46.5012 349.388 44.7612C349.388 43.0412 350.308 41.9612 351.688 41.9612C353.328 41.9612 354.128 43.2412 354.128 44.7412C354.128 46.2612 353.428 47.5212 351.708 47.5212ZM358.419 50.3212H361.139V40.0612H358.419V50.3212ZM358.419 38.4612H361.139V36.0212H358.419V38.4612ZM365.552 40.0612H362.892V50.3212H365.612V44.5012C365.612 43.1012 366.492 42.1412 367.692 42.1412C368.832 42.1412 369.472 42.9212 369.472 44.0212V50.3212H372.192V43.6212C372.192 41.3812 370.772 39.7812 368.652 39.7812C367.252 39.7812 366.312 40.3612 365.612 41.4612H365.552V40.0612ZM373.073 41.8612H374.493V47.8812C374.493 49.8212 375.953 50.3412 377.273 50.3412C378.353 50.3412 378.973 50.3012 378.973 50.3012V48.3012C378.973 48.3012 378.513 48.3212 378.173 48.3212C377.573 48.3212 377.153 48.0612 377.153 47.3012V41.8612H378.913V40.0612H377.153V36.8612H374.493V40.0612H373.073V41.8612ZM386.393 50.3212H388.993L392.573 40.0612H389.853L388.173 45.3812C387.873 46.3612 387.733 47.0212 387.733 47.0212H387.693C387.693 47.0212 387.533 46.3612 387.233 45.3812L385.593 40.0612H382.833L386.393 50.3212ZM399.664 50.3212H402.284V50.2212C402.044 50.0412 401.924 49.5812 401.924 48.8012V43.5812C401.924 41.1812 400.684 39.8012 397.604 39.8012C394.604 39.8012 393.264 41.3812 393.184 43.1812H395.604C395.684 42.2012 396.304 41.7412 397.584 41.7412C398.724 41.7412 399.304 42.2212 399.304 42.9612C399.304 43.7412 398.524 43.8812 396.824 44.1212C394.544 44.4412 392.704 45.1612 392.704 47.4212C392.704 49.4612 394.184 50.5612 396.284 50.5612C398.044 50.5612 398.784 49.9612 399.304 49.1812H399.344C399.404 49.6412 399.504 50.1212 399.664 50.3212ZM396.944 48.6612C395.984 48.6612 395.344 48.3212 395.344 47.3612C395.344 46.4012 396.044 46.0812 397.464 45.7612C398.144 45.6012 398.884 45.4412 399.364 45.1612V46.7012C399.364 47.7012 398.504 48.6612 396.944 48.6612ZM406.313 40.0612H403.653V50.3212H406.373V44.5012C406.373 43.1012 407.253 42.1412 408.453 42.1412C409.593 42.1412 410.233 42.9212 410.233 44.0212V50.3212H412.953V43.6212C412.953 41.3812 411.533 39.7812 409.413 39.7812C408.013 39.7812 407.073 40.3612 406.373 41.4612H406.313V40.0612ZM418.47 50.6212C419.91 50.6212 420.93 49.9612 421.53 48.9812H421.57V50.3212H424.19V36.0212H421.47V41.3012H421.41C420.85 40.4412 419.95 39.7812 418.51 39.7812C415.95 39.7812 414.13 42.0012 414.13 45.2012C414.13 48.5212 415.89 50.6212 418.47 50.6212ZM419.07 48.3412C417.67 48.3412 416.89 47.1812 416.89 45.2012C416.89 43.3012 417.65 41.9812 419.15 41.9812C420.89 41.9812 421.53 43.3012 421.53 45.2612C421.53 47.1412 420.69 48.3412 419.07 48.3412ZM432.418 50.3212H435.038V50.2212C434.798 50.0412 434.678 49.5812 434.678 48.8012V43.5812C434.678 41.1812 433.438 39.8012 430.358 39.8012C427.358 39.8012 426.018 41.3812 425.938 43.1812H428.358C428.438 42.2012 429.058 41.7412 430.338 41.7412C431.478 41.7412 432.058 42.2212 432.058 42.9612C432.058 43.7412 431.278 43.8812 429.578 44.1212C427.298 44.4412 425.458 45.1612 425.458 47.4212C425.458 49.4612 426.938 50.5612 429.038 50.5612C430.798 50.5612 431.538 49.9612 432.058 49.1812H432.098C432.158 49.6412 432.258 50.1212 432.418 50.3212ZM429.698 48.6612C428.738 48.6612 428.098 48.3212 428.098 47.3612C428.098 46.4012 428.798 46.0812 430.218 45.7612C430.898 45.6012 431.638 45.4412 432.118 45.1612V46.7012C432.118 47.7012 431.258 48.6612 429.698 48.6612ZM442.867 50.3212H445.487V50.2212C445.247 50.0412 445.127 49.5812 445.127 48.8012V43.5812C445.127 41.1812 443.887 39.8012 440.807 39.8012C437.807 39.8012 436.467 41.3812 436.387 43.1812H438.807C438.887 42.2012 439.507 41.7412 440.787 41.7412C441.927 41.7412 442.507 42.2212 442.507 42.9612C442.507 43.7412 441.727 43.8812 440.027 44.1212C437.747 44.4412 435.907 45.1612 435.907 47.4212C435.907 49.4612 437.387 50.5612 439.487 50.5612C441.247 50.5612 441.987 49.9612 442.507 49.1812H442.547C442.607 49.6412 442.707 50.1212 442.867 50.3212ZM440.147 48.6612C439.187 48.6612 438.547 48.3212 438.547 47.3612C438.547 46.4012 439.247 46.0812 440.667 45.7612C441.347 45.6012 442.087 45.4412 442.567 45.1612V46.7012C442.567 47.7012 441.707 48.6612 440.147 48.6612ZM451.377 53.8212C452.897 53.8212 454.217 53.4612 455.077 52.6612C455.837 51.9612 456.297 50.9812 456.297 49.5412V40.0612H453.677V41.1412H453.637C453.017 40.2812 452.077 39.7812 450.797 39.7812C448.197 39.7812 446.357 41.7412 446.357 44.8012C446.357 47.9012 448.597 49.7012 450.877 49.7012C452.177 49.7012 452.957 49.1812 453.557 48.5012H453.617V49.6212C453.617 51.0212 452.877 51.7612 451.337 51.7612C450.077 51.7612 449.497 51.2612 449.277 50.6212H446.577C446.857 52.6212 448.577 53.8212 451.377 53.8212ZM451.337 47.5212C449.937 47.5212 449.017 46.5012 449.017 44.7612C449.017 43.0412 449.937 41.9612 451.317 41.9612C452.957 41.9612 453.757 43.2412 453.757 44.7412C453.757 46.2612 453.057 47.5212 451.337 47.5212Z" fill="#F9F9F9"/>
</g>
<defs>
<clipPath id="clip0_103_673">
<rect width="64" height="64" fill="white" transform="translate(0 0.821289)"/>
</clipPath>
<clipPath id="clip1_103_673">
<rect width="377" height="43" fill="white" transform="translate(80 11.3213)"/>
</clipPath>
</defs>
</svg>
