<svg width="312" height="65" viewBox="0 0 312 65" fill="none" xmlns="http://www.w3.org/2000/svg">
<g clip-path="url(#clip0_18_358)">
<path fill-rule="evenodd" clip-rule="evenodd" d="M40.0001 0.344238C40.0001 13.599 50.7453 24.3442 64.0001 24.3442V30.498C47.3466 30.498 33.8463 16.9977 33.8463 0.344238H40.0001ZM40.0001 64.3441C40.0001 51.0893 50.7453 40.3441 64.0001 40.3441V34.1903C47.3466 34.1903 33.8463 47.6906 33.8463 64.3441H40.0001ZM0 40.3441C13.2548 40.3441 24 51.0893 24 64.3441H30.1538C30.1538 47.6906 16.6535 34.1903 0 34.1903V40.3441ZM24 0.344238C24 13.599 13.2548 24.3442 0 24.3442V30.498C16.6535 30.498 30.1538 16.9977 30.1538 0.344238H24Z" fill="#F9F9F9"/>
</g>
<g clip-path="url(#clip1_18_358)">
<path d="M87.1261 28.3444H88.4677V23.6675H84.763V25.0459H86.88V25.0951C86.88 26.0675 85.9815 27.089 84.6154 27.089C83.1015 27.089 82.1538 25.7721 82.1538 23.9751C82.1538 22.2275 82.9784 20.849 84.64 20.849C85.7723 20.849 86.4246 21.4644 86.6215 22.3136H88.3692C88.0861 20.5905 86.8184 19.3721 84.603 19.3721C83.4215 19.3721 82.4861 19.729 81.7723 20.3813C80.8492 21.2305 80.3323 22.5105 80.3323 23.9751C80.3323 25.3044 80.7507 26.4367 81.4769 27.249C82.203 28.049 83.2369 28.529 84.5661 28.529C85.6123 28.529 86.4369 28.1721 87.04 27.1628H87.0646L87.1261 28.3444ZM89.58 28.3444H91.2538V22.0305H89.58V28.3444ZM89.58 21.0459H91.2538V19.5444H89.58V21.0459ZM93.9693 22.0305H92.3324V28.3444H94.0062V24.7628C94.0062 23.9013 94.5478 23.3105 95.2862 23.3105C95.9878 23.3105 96.3816 23.7905 96.3816 24.4675V28.3444H98.0555V24.2213C98.0555 22.8428 97.1816 21.8582 95.877 21.8582C95.0155 21.8582 94.437 22.2151 94.0062 22.8921H93.9693V22.0305ZM99.0872 28.3444H100.761V22.0305H99.0872V28.3444ZM99.0872 21.0459H100.761V19.5444H99.0872V21.0459ZM107.895 28.529C109.113 28.529 109.962 28.1598 110.565 27.5936C111.156 27.0398 111.488 26.289 111.538 25.5136H109.79C109.679 26.4367 108.941 27.0644 107.895 27.0644C106.418 27.0644 105.482 25.7721 105.482 23.9751C105.482 22.2275 106.258 20.8736 107.882 20.8736C108.916 20.8736 109.581 21.4521 109.741 22.3382H111.513C111.328 20.6644 110.048 19.3721 107.882 19.3721C105.285 19.3721 103.661 21.3659 103.661 23.9751C103.661 26.6213 105.421 28.529 107.895 28.529ZM116.296 28.3444H117.908V28.2828C117.76 28.1721 117.686 27.889 117.686 27.409V24.1967C117.686 22.7198 116.923 21.8705 115.028 21.8705C113.182 21.8705 112.357 22.8428 112.308 23.9505H113.797C113.846 23.3475 114.228 23.0644 115.016 23.0644C115.717 23.0644 116.074 23.3598 116.074 23.8151C116.074 24.2951 115.594 24.3813 114.548 24.529C113.145 24.7259 112.013 25.169 112.013 26.5598C112.013 27.8151 112.923 28.4921 114.216 28.4921C115.299 28.4921 115.754 28.1228 116.074 27.6428H116.099C116.136 27.9259 116.197 28.2213 116.296 28.3444ZM114.622 27.3228C114.031 27.3228 113.637 27.1136 113.637 26.5228C113.637 25.9321 114.068 25.7351 114.942 25.5382C115.36 25.4398 115.816 25.3413 116.111 25.169V26.1167C116.111 26.7321 115.582 27.3228 114.622 27.3228ZM118.751 30.4121H120.424V27.6305H120.449C120.806 28.1721 121.384 28.529 122.271 28.529C123.895 28.529 125.003 27.2367 125.003 25.1936C125.003 23.2244 123.932 21.8582 122.258 21.8582C121.397 21.8582 120.806 22.2644 120.4 22.8182H120.363V22.0305H118.751V30.4121ZM121.914 27.1382C120.917 27.1382 120.388 26.3875 120.388 25.2428C120.388 24.1105 120.806 23.2121 121.852 23.2121C122.886 23.2121 123.304 24.049 123.304 25.2428C123.304 26.4367 122.763 27.1382 121.914 27.1382ZM125.782 28.3444H127.456V22.0305H125.782V28.3444ZM125.782 21.0459H127.456V19.5444H125.782V21.0459ZM128.165 23.1382H129.039V26.8428C129.039 28.0367 129.937 28.3567 130.75 28.3567C131.414 28.3567 131.796 28.3321 131.796 28.3321V27.1013C131.796 27.1013 131.513 27.1136 131.304 27.1136C130.934 27.1136 130.676 26.9536 130.676 26.4859V23.1382H131.759V22.0305H130.676V20.0613H129.039V22.0305H128.165V23.1382ZM136.656 28.3444H138.269V28.2828C138.121 28.1721 138.047 27.889 138.047 27.409V24.1967C138.047 22.7198 137.284 21.8705 135.389 21.8705C133.542 21.8705 132.718 22.8428 132.669 23.9505H134.158C134.207 23.3475 134.589 23.0644 135.376 23.0644C136.078 23.0644 136.435 23.3598 136.435 23.8151C136.435 24.2951 135.955 24.3813 134.909 24.529C133.506 24.7259 132.373 25.169 132.373 26.5598C132.373 27.8151 133.284 28.4921 134.576 28.4921C135.659 28.4921 136.115 28.1228 136.435 27.6428H136.459C136.496 27.9259 136.558 28.2213 136.656 28.3444ZM134.982 27.3228C134.392 27.3228 133.998 27.1136 133.998 26.5228C133.998 25.9321 134.429 25.7351 135.302 25.5382C135.721 25.4398 136.176 25.3413 136.472 25.169V26.1167C136.472 26.7321 135.942 27.3228 134.982 27.3228ZM139.136 28.3444H140.81V19.5444H139.136V28.3444ZM80.6769 43.1136H83.963C85.0707 43.1136 85.92 42.8059 86.5723 42.2644C87.4954 41.489 87.9754 40.2336 87.9754 38.8059C87.9754 36.209 86.4615 34.3136 84.1107 34.3136H80.6769V43.1136ZM82.4615 41.5751V35.8398H83.8892C85.403 35.8398 86.1661 37.0582 86.1661 38.8059C86.1661 40.5536 85.5138 41.5751 83.84 41.5751H82.4615ZM91.7769 43.2982C93.4015 43.2982 94.3984 42.3505 94.6323 41.2305H92.983C92.7984 41.7105 92.4169 42.0059 91.7646 42.0059C90.8169 42.0059 90.2754 41.4028 90.1523 40.4305H94.7307C94.7307 38.1782 93.6477 36.6275 91.6169 36.6275C89.7707 36.6275 88.503 38.0798 88.503 39.9505C88.503 41.8336 89.6846 43.2982 91.7769 43.2982ZM91.6415 37.9198C92.4046 37.9198 92.9338 38.4736 92.983 39.2736H90.1769C90.3246 38.449 90.7554 37.9198 91.6415 37.9198ZM99.2097 36.7998H97.5728V43.1136H99.2466V39.5321C99.2466 38.6705 99.7882 38.0798 100.527 38.0798C101.228 38.0798 101.622 38.5598 101.622 39.2367V43.1136H103.296V38.9905C103.296 37.6121 102.422 36.6275 101.117 36.6275C100.256 36.6275 99.6774 36.9844 99.2466 37.6613H99.2097V36.7998ZM104.328 43.1136H106.001V36.7998H104.328V43.1136ZM104.328 35.8151H106.001V34.3136H104.328V35.8151ZM110.046 43.2982C111.671 43.2982 112.668 42.3505 112.902 41.2305H111.252C111.068 41.7105 110.686 42.0059 110.034 42.0059C109.086 42.0059 108.545 41.4028 108.422 40.4305H113C113 38.1782 111.917 36.6275 109.886 36.6275C108.04 36.6275 106.772 38.0798 106.772 39.9505C106.772 41.8336 107.954 43.2982 110.046 43.2982ZM109.911 37.9198C110.674 37.9198 111.203 38.4736 111.252 39.2736H108.446C108.594 38.449 109.025 37.9198 109.911 37.9198ZM119.375 43.1136V36.7998H117.701V40.4428C117.701 41.2798 117.221 41.8705 116.433 41.8705C115.719 41.8705 115.387 41.4644 115.387 40.7259V36.7998H113.725V41.009C113.725 42.3875 114.513 43.2859 115.916 43.2859C116.802 43.2859 117.295 42.9536 117.725 42.3751H117.762V43.1136H119.375ZM121.811 43.1136H123.325L124.187 40.0121C124.322 39.5075 124.482 38.9167 124.482 38.9167H124.507C124.507 38.9167 124.654 39.5075 124.79 40.0121L125.627 43.1136H127.153L129.036 36.7998H127.411L126.611 39.729C126.476 40.2459 126.328 40.9105 126.328 40.9105H126.304C126.304 40.9105 126.144 40.2459 126.008 39.7167L125.184 36.7998H123.756L122.968 39.7167C122.833 40.2336 122.697 40.9105 122.697 40.9105H122.673C122.673 40.9105 122.525 40.2459 122.39 39.729L121.627 36.7998H119.965L121.811 43.1136ZM132.414 43.2982C134.039 43.2982 135.035 42.3505 135.269 41.2305H133.62C133.435 41.7105 133.054 42.0059 132.402 42.0059C131.454 42.0059 130.912 41.4028 130.789 40.4305H135.368C135.368 38.1782 134.285 36.6275 132.254 36.6275C130.408 36.6275 129.14 38.0798 129.14 39.9505C129.14 41.8336 130.322 43.2982 132.414 43.2982ZM132.279 37.9198C133.042 37.9198 133.571 38.4736 133.62 39.2736H130.814C130.962 38.449 131.392 37.9198 132.279 37.9198ZM137.804 37.9567H138.665V43.1136H140.339V37.9567H141.471V36.7998H140.339V36.3321C140.339 35.6798 140.684 35.5813 141.471 35.6182V34.3259C139.859 34.1536 138.665 34.6951 138.665 36.2336V36.7998H137.804V37.9567ZM142.222 43.1136H143.896V36.7998H142.222V43.1136ZM142.222 35.8151H143.896V34.3136H142.222V35.8151ZM146.614 36.7998H144.977V43.1136H146.65V39.5321C146.65 38.6705 147.192 38.0798 147.93 38.0798C148.632 38.0798 149.026 38.5598 149.026 39.2367V43.1136H150.7V38.9905C150.7 37.6121 149.826 36.6275 148.521 36.6275C147.66 36.6275 147.081 36.9844 146.65 37.6613H146.614V36.7998ZM155.707 43.1136H157.319V43.0521C157.172 42.9413 157.098 42.6582 157.098 42.1782V38.9659C157.098 37.489 156.335 36.6398 154.439 36.6398C152.593 36.6398 151.769 37.6121 151.719 38.7198H153.209C153.258 38.1167 153.639 37.8336 154.427 37.8336C155.129 37.8336 155.486 38.129 155.486 38.5844C155.486 39.0644 155.006 39.1505 153.959 39.2982C152.556 39.4951 151.424 39.9382 151.424 41.329C151.424 42.5844 152.335 43.2613 153.627 43.2613C154.71 43.2613 155.166 42.8921 155.486 42.4121H155.51C155.547 42.6952 155.609 42.9905 155.707 43.1136ZM154.033 42.0921C153.442 42.0921 153.049 41.8828 153.049 41.2921C153.049 40.7013 153.479 40.5044 154.353 40.3075C154.772 40.209 155.227 40.1105 155.522 39.9382V40.8859C155.522 41.5013 154.993 42.0921 154.033 42.0921ZM159.799 36.7998H158.162V43.1136H159.836V39.5321C159.836 38.6705 160.377 38.0798 161.116 38.0798C161.817 38.0798 162.211 38.5598 162.211 39.2367V43.1136H163.885V38.9905C163.885 37.6121 163.011 36.6275 161.706 36.6275C160.845 36.6275 160.266 36.9844 159.836 37.6613H159.799V36.7998ZM167.846 43.2982C169.532 43.2982 170.578 42.2275 170.689 40.8859H169.076C168.966 41.5998 168.486 41.9567 167.809 41.9567C166.787 41.9567 166.307 41.1567 166.307 39.9628C166.307 38.7444 166.824 37.969 167.833 37.969C168.449 37.969 168.879 38.3875 168.99 38.9413H170.627C170.406 37.5751 169.396 36.6275 167.759 36.6275C165.839 36.6275 164.609 38.0798 164.609 39.9628C164.609 41.8459 165.852 43.2982 167.846 43.2982ZM171.419 43.1136H173.093V36.7998H171.419V43.1136ZM171.419 35.8151H173.093V34.3136H171.419V35.8151ZM177.137 43.2982C178.762 43.2982 179.759 42.3505 179.993 41.2305H178.343C178.159 41.7105 177.777 42.0059 177.125 42.0059C176.177 42.0059 175.636 41.4028 175.513 40.4305H180.091C180.091 38.1782 179.008 36.6275 176.977 36.6275C175.131 36.6275 173.863 38.0798 173.863 39.9505C173.863 41.8336 175.045 43.2982 177.137 43.2982ZM177.002 37.9198C177.765 37.9198 178.294 38.4736 178.343 39.2736H175.537C175.685 38.449 176.116 37.9198 177.002 37.9198ZM177.568 35.9628H179.143V34.5598H177.568V35.9628ZM174.823 35.9628H176.399V34.5598H174.823V35.9628ZM180.89 43.1136H182.564V34.3136H180.89V43.1136ZM186.633 43.2982C188.257 43.2982 189.254 42.3505 189.488 41.2305H187.839C187.654 41.7105 187.273 42.0059 186.62 42.0059C185.673 42.0059 185.131 41.4028 185.008 40.4305H189.586C189.586 38.1782 188.503 36.6275 186.473 36.6275C184.626 36.6275 183.359 38.0798 183.359 39.9505C183.359 41.8336 184.54 43.2982 186.633 43.2982ZM186.497 37.9198C187.26 37.9198 187.79 38.4736 187.839 39.2736H185.033C185.18 38.449 185.611 37.9198 186.497 37.9198ZM193.782 43.1136H195.296L196.158 40.0121C196.293 39.5075 196.453 38.9167 196.453 38.9167H196.478C196.478 38.9167 196.625 39.5075 196.761 40.0121L197.598 43.1136H199.124L201.007 36.7998H199.382L198.582 39.729C198.447 40.2459 198.299 40.9105 198.299 40.9105H198.274C198.274 40.9105 198.114 40.2459 197.979 39.7167L197.154 36.7998H195.727L194.939 39.7167C194.804 40.2336 194.668 40.9105 194.668 40.9105H194.644C194.644 40.9105 194.496 40.2459 194.361 39.729L193.598 36.7998H191.936L193.782 43.1136ZM204.385 43.2982C206.01 43.2982 207.007 42.3505 207.241 41.2305H205.591C205.407 41.7105 205.025 42.0059 204.373 42.0059C203.425 42.0059 202.884 41.4028 202.761 40.4305H207.339C207.339 38.1782 206.256 36.6275 204.225 36.6275C202.379 36.6275 201.111 38.0798 201.111 39.9505C201.111 41.8336 202.293 43.2982 204.385 43.2982ZM204.25 37.9198C205.013 37.9198 205.542 38.4736 205.591 39.2736H202.785C202.933 38.449 203.364 37.9198 204.25 37.9198ZM209.726 36.7998H208.114V43.1136H209.788V40.0367C209.788 38.7075 210.575 38.129 211.671 38.2398H211.708V36.7752C211.609 36.7382 211.498 36.7259 211.314 36.7259C210.575 36.7259 210.145 37.0951 209.763 37.809H209.726V36.7998ZM215.214 43.2982C216.839 43.2982 217.836 42.3505 218.07 41.2305H216.42C216.236 41.7105 215.854 42.0059 215.202 42.0059C214.254 42.0059 213.713 41.4028 213.59 40.4305H218.168C218.168 38.1782 217.085 36.6275 215.054 36.6275C213.208 36.6275 211.94 38.0798 211.94 39.9505C211.94 41.8336 213.122 43.2982 215.214 43.2982ZM215.079 37.9198C215.842 37.9198 216.371 38.4736 216.42 39.2736H213.614C213.762 38.449 214.193 37.9198 215.079 37.9198ZM218.967 43.1136H220.641V34.3136H218.967V43.1136ZM224.106 43.2982C224.993 43.2982 225.62 42.8921 225.99 42.289H226.014V43.1136H227.626V34.3136H225.953V37.5628H225.916C225.571 37.0336 225.017 36.6275 224.131 36.6275C222.556 36.6275 221.436 37.9936 221.436 39.9628C221.436 42.0059 222.519 43.2982 224.106 43.2982ZM224.476 41.8951C223.614 41.8951 223.134 41.1813 223.134 39.9628C223.134 38.7936 223.602 37.9813 224.525 37.9813C225.596 37.9813 225.99 38.7936 225.99 39.9998C225.99 41.1567 225.473 41.8951 224.476 41.8951ZM234.302 43.2982C235.89 43.2982 236.973 42.0059 236.973 39.9628C236.973 37.9936 235.841 36.6275 234.253 36.6275C233.379 36.6275 232.838 37.0336 232.493 37.5628H232.456V34.3136H230.782V43.1136H232.394V42.3259H232.419C232.788 42.9167 233.416 43.2982 234.302 43.2982ZM233.933 41.8951C232.998 41.8951 232.419 41.1567 232.419 39.9998C232.419 38.8305 232.813 37.9813 233.871 37.9813C234.807 37.9813 235.274 38.7936 235.274 39.9628C235.274 41.1813 234.794 41.8951 233.933 41.8951ZM240.719 43.2982C242.344 43.2982 243.341 42.3505 243.575 41.2305H241.926C241.741 41.7105 241.359 42.0059 240.707 42.0059C239.759 42.0059 239.218 41.4028 239.095 40.4305H243.673C243.673 38.1782 242.59 36.6275 240.559 36.6275C238.713 36.6275 237.446 38.0798 237.446 39.9505C237.446 41.8336 238.627 43.2982 240.719 43.2982ZM240.584 37.9198C241.347 37.9198 241.876 38.4736 241.926 39.2736H239.119C239.267 38.449 239.698 37.9198 240.584 37.9198ZM247.229 45.2675C248.165 45.2675 248.977 45.0459 249.506 44.5536C249.974 44.1228 250.257 43.5198 250.257 42.6336V36.7998H248.645V37.4644H248.62C248.239 36.9351 247.66 36.6275 246.873 36.6275C245.273 36.6275 244.14 37.8336 244.14 39.7167C244.14 41.6244 245.519 42.7321 246.922 42.7321C247.722 42.7321 248.202 42.4121 248.571 41.9936H248.608V42.6828C248.608 43.5444 248.153 43.9998 247.205 43.9998C246.43 43.9998 246.073 43.6921 245.937 43.2982H244.276C244.448 44.529 245.506 45.2675 247.229 45.2675ZM247.205 41.3905C246.343 41.3905 245.777 40.7628 245.777 39.6921C245.777 38.6336 246.343 37.969 247.193 37.969C248.202 37.969 248.694 38.7567 248.694 39.6798C248.694 40.6151 248.263 41.3905 247.205 41.3905ZM251.335 43.1136H253.009V36.7998H251.335V43.1136ZM251.335 35.8151H253.009V34.3136H251.335V35.8151ZM255.724 36.7998H254.087V43.1136H255.761V39.5321C255.761 38.6705 256.303 38.0798 257.041 38.0798C257.743 38.0798 258.137 38.5598 258.137 39.2367V43.1136H259.81V38.9905C259.81 37.6121 258.937 36.6275 257.632 36.6275C256.77 36.6275 256.192 36.9844 255.761 37.6613H255.724V36.7998ZM260.353 37.9075H261.226V41.6121C261.226 42.8059 262.125 43.1259 262.937 43.1259C263.602 43.1259 263.983 43.1013 263.983 43.1013V41.8705C263.983 41.8705 263.7 41.8828 263.491 41.8828C263.122 41.8828 262.863 41.7228 262.863 41.2551V37.9075H263.946V36.7998H262.863V34.8305H261.226V36.7998H260.353V37.9075ZM268.55 43.1136H270.15L272.353 36.7998H270.679L269.645 40.0736C269.46 40.6767 269.374 41.0828 269.374 41.0828H269.35C269.35 41.0828 269.251 40.6767 269.066 40.0736L268.057 36.7998H266.359L268.55 43.1136ZM276.716 43.1136H278.329V43.0521C278.181 42.9413 278.107 42.6582 278.107 42.1782V38.9659C278.107 37.489 277.344 36.6398 275.449 36.6398C273.602 36.6398 272.778 37.6121 272.729 38.7198H274.218C274.267 38.1167 274.649 37.8336 275.436 37.8336C276.138 37.8336 276.495 38.129 276.495 38.5844C276.495 39.0644 276.015 39.1505 274.969 39.2982C273.566 39.4951 272.433 39.9382 272.433 41.329C272.433 42.5844 273.344 43.2613 274.636 43.2613C275.719 43.2613 276.175 42.8921 276.495 42.4121H276.519C276.556 42.6952 276.618 42.9905 276.716 43.1136ZM275.042 42.0921C274.452 42.0921 274.058 41.8828 274.058 41.2921C274.058 40.7013 274.489 40.5044 275.362 40.3075C275.781 40.209 276.236 40.1105 276.532 39.9382V40.8859C276.532 41.5013 276.002 42.0921 275.042 42.0921ZM280.808 36.7998H279.171V43.1136H280.845V39.5321C280.845 38.6705 281.386 38.0798 282.125 38.0798C282.826 38.0798 283.22 38.5598 283.22 39.2367V43.1136H284.894V38.9905C284.894 37.6121 284.02 36.6275 282.716 36.6275C281.854 36.6275 281.276 36.9844 280.845 37.6613H280.808V36.7998ZM288.289 43.2982C289.175 43.2982 289.803 42.8921 290.172 42.289H290.197V43.1136H291.809V34.3136H290.135V37.5628H290.098C289.754 37.0336 289.2 36.6275 288.314 36.6275C286.738 36.6275 285.618 37.9936 285.618 39.9628C285.618 42.0059 286.702 43.2982 288.289 43.2982ZM288.658 41.8951C287.797 41.8951 287.317 41.1813 287.317 39.9628C287.317 38.7936 287.785 37.9813 288.708 37.9813C289.778 37.9813 290.172 38.7936 290.172 39.9998C290.172 41.1567 289.655 41.8951 288.658 41.8951ZM296.873 43.1136H298.485V43.0521C298.337 42.9413 298.263 42.6582 298.263 42.1782V38.9659C298.263 37.489 297.5 36.6398 295.605 36.6398C293.759 36.6398 292.934 37.6121 292.885 38.7198H294.374C294.423 38.1167 294.805 37.8336 295.593 37.8336C296.294 37.8336 296.651 38.129 296.651 38.5844C296.651 39.0644 296.171 39.1505 295.125 39.2982C293.722 39.4951 292.59 39.9382 292.59 41.329C292.59 42.5844 293.5 43.2613 294.793 43.2613C295.876 43.2613 296.331 42.8921 296.651 42.4121H296.676C296.713 42.6952 296.774 42.9905 296.873 43.1136ZM295.199 42.0921C294.608 42.0921 294.214 41.8828 294.214 41.2921C294.214 40.7013 294.645 40.5044 295.519 40.3075C295.937 40.209 296.393 40.1105 296.688 39.9382V40.8859C296.688 41.5013 296.159 42.0921 295.199 42.0921ZM303.303 43.1136H304.915V43.0521C304.767 42.9413 304.694 42.6582 304.694 42.1782V38.9659C304.694 37.489 303.93 36.6398 302.035 36.6398C300.189 36.6398 299.364 37.6121 299.315 38.7198H300.804C300.854 38.1167 301.235 37.8336 302.023 37.8336C302.724 37.8336 303.081 38.129 303.081 38.5844C303.081 39.0644 302.601 39.1505 301.555 39.2982C300.152 39.4951 299.02 39.9382 299.02 41.329C299.02 42.5844 299.93 43.2613 301.223 43.2613C302.306 43.2613 302.761 42.8921 303.081 42.4121H303.106C303.143 42.6952 303.204 42.9905 303.303 43.1136ZM301.629 42.0921C301.038 42.0921 300.644 41.8828 300.644 41.2921C300.644 40.7013 301.075 40.5044 301.949 40.3075C302.367 40.209 302.823 40.1105 303.118 39.9382V40.8859C303.118 41.5013 302.589 42.0921 301.629 42.0921ZM308.54 45.2675C309.475 45.2675 310.287 45.0459 310.817 44.5536C311.284 44.1228 311.567 43.5198 311.567 42.6336V36.7998H309.955V37.4644H309.93C309.549 36.9351 308.97 36.6275 308.183 36.6275C306.583 36.6275 305.45 37.8336 305.45 39.7167C305.45 41.6244 306.829 42.7321 308.232 42.7321C309.032 42.7321 309.512 42.4121 309.881 41.9936H309.918V42.6828C309.918 43.5444 309.463 43.9998 308.515 43.9998C307.74 43.9998 307.383 43.6921 307.247 43.2982H305.586C305.758 44.529 306.817 45.2675 308.54 45.2675ZM308.515 41.3905C307.654 41.3905 307.087 40.7628 307.087 39.6921C307.087 38.6336 307.654 37.969 308.503 37.969C309.512 37.969 310.004 38.7567 310.004 39.6798C310.004 40.6151 309.574 41.3905 308.515 41.3905Z" fill="#F9F9F9"/>
</g>
<defs>
<clipPath id="clip0_18_358">
<rect width="64" height="64" fill="white" transform="translate(0 0.344238)"/>
</clipPath>
<clipPath id="clip1_18_358">
<rect width="232" height="26.4615" fill="white" transform="translate(80 19.1135)"/>
</clipPath>
</defs>
</svg>
