<svg width="12" height="15" viewBox="0 0 12 15" fill="none" xmlns="http://www.w3.org/2000/svg">
<path d="M9.99984 5.33332H9.33317V3.99999C9.33317 2.15999 7.83984 0.666656 5.99984 0.666656C4.15984 0.666656 2.6665 2.15999 2.6665 3.99999V5.33332H1.99984C1.2665 5.33332 0.666504 5.93332 0.666504 6.66666V13.3333C0.666504 14.0667 1.2665 14.6667 1.99984 14.6667H9.99984C10.7332 14.6667 11.3332 14.0667 11.3332 13.3333V6.66666C11.3332 5.93332 10.7332 5.33332 9.99984 5.33332ZM5.99984 11.3333C5.2665 11.3333 4.6665 10.7333 4.6665 9.99999C4.6665 9.26666 5.2665 8.66666 5.99984 8.66666C6.73317 8.66666 7.33317 9.26666 7.33317 9.99999C7.33317 10.7333 6.73317 11.3333 5.99984 11.3333ZM8.0665 5.33332H3.93317V3.99999C3.93317 2.85999 4.85984 1.93332 5.99984 1.93332C7.13984 1.93332 8.0665 2.85999 8.0665 3.99999V5.33332Z" fill="#1ECB63"/>
</svg>
