<svg xmlns="http://www.w3.org/2000/svg" width="274.0740790779205" height="62.85185177826585" fill="none"><rect id="backgroundrect" width="100%" height="100%" x="0" y="0" fill="none" stroke="none" class="selected" style=""/>

<defs>
<clipPath id="clip0_103_325">
<rect width="267.072998046875" height="60" fill="white" y="0.8215330243110657" x="0" id="svg_1"/>
</clipPath>
</defs>
<g class="currentLayer" style=""><title>Layer 1</title><g clip-path="url(#clip0_103_325)" id="svg_2">
<path d="M37.5784 0.92749C37.5784 13.3096 47.6159 23.3474 59.9981 23.3474V29.0961C44.4411 29.0961 31.8296 16.4846 31.8296 0.92749H37.5784Z" fill="#F9F9F9" id="svg_3"/>
<path d="M37.5784 60.7154C37.5784 48.3332 47.6159 38.2957 59.9981 38.2957V32.5469C44.4411 32.5469 31.8296 45.1583 31.8296 60.7154H37.5784Z" fill="#F9F9F9" id="svg_4"/>
<path d="M0.212158 38.2957C12.5943 38.2957 22.6321 48.3332 22.6321 60.7154H28.3808C28.3808 45.1583 15.7692 32.5469 0.212158 32.5469V38.2957Z" fill="#F9F9F9" id="svg_5"/>
<path d="M22.6321 0.92749C22.6321 13.3096 12.5943 23.3474 0.212158 23.3474V29.0961C15.7692 29.0961 28.3808 16.4846 28.3808 0.92749H22.6321Z" fill="#F9F9F9" id="svg_6"/>
<path d="M98.8227 43.334H103.022V28.696H91.4266V33.0104H98.0523V33.1645C98.0523 36.2077 95.2403 39.405 90.9644 39.405C86.2264 39.405 83.2603 35.2831 83.2603 29.6591C83.2603 24.1891 85.8413 19.8747 91.0415 19.8747C94.5854 19.8747 96.6271 21.8008 97.2435 24.4587H102.713C101.827 19.0658 97.8598 15.2522 90.9259 15.2522C87.2279 15.2522 84.3003 16.3693 82.0662 18.4109C79.1771 21.0689 77.5591 25.0751 77.5591 29.6591C77.5591 33.8194 78.8688 37.3633 81.1415 39.9057C83.4144 42.4096 86.6501 43.9118 90.8103 43.9118C94.0847 43.9118 96.6657 42.7948 98.5532 39.636H98.6301L98.8227 43.334Z" fill="#F9F9F9" id="svg_7"/>
<path d="M106.503 43.334H111.742V23.5728H106.503V43.334ZM106.503 20.4911H111.742V15.7915H106.503V20.4911Z" fill="#F9F9F9" id="svg_8"/>
<path d="M120.241 23.5728H115.117V43.334H120.356V32.1245C120.356 29.4279 122.051 27.5789 124.363 27.5789C126.558 27.5789 127.791 29.0813 127.791 31.1999V43.334H133.03V30.4294C133.03 26.1153 130.295 23.0334 126.212 23.0334C123.515 23.0334 121.705 24.1506 120.356 26.2692H120.241V23.5728Z" fill="#F9F9F9" id="svg_9"/>
<path d="M136.259 43.334H141.498V23.5728H136.259V43.334ZM136.259 20.4911H141.498V15.7915H136.259V20.4911Z" fill="#F9F9F9" id="svg_10"/>
<path d="M163.825 43.9118C167.638 43.9118 170.296 42.7562 172.184 40.9843C174.033 39.2509 175.073 36.9011 175.227 34.4743H169.757C169.41 37.3633 167.099 39.3279 163.825 39.3279C159.202 39.3279 156.274 35.2831 156.274 29.6591C156.274 24.1891 158.701 19.9518 163.786 19.9518C167.022 19.9518 169.102 21.7623 169.603 24.5358H175.15C174.572 19.2969 170.566 15.2522 163.786 15.2522C155.658 15.2522 150.573 21.4926 150.573 29.6591C150.573 37.9411 156.082 43.9118 163.825 43.9118Z" fill="#F9F9F9" id="svg_11"/>
<path d="M190.119 43.3341H195.165V43.1414C194.703 42.7948 194.472 41.9087 194.472 40.4065V30.3526C194.472 25.7299 192.083 23.072 186.151 23.072C180.373 23.072 177.792 26.1153 177.638 29.5821H182.299C182.453 27.6946 183.647 26.8085 186.113 26.8085C188.308 26.8085 189.425 27.7331 189.425 29.1585C189.425 30.6607 187.923 30.9304 184.649 31.3926C180.257 32.0089 176.713 33.3955 176.713 37.7485C176.713 41.6777 179.564 43.7963 183.609 43.7963C186.998 43.7963 188.424 42.6407 189.425 41.1385H189.502C189.618 42.0243 189.81 42.9489 190.119 43.3341ZM184.88 40.1368C183.031 40.1368 181.798 39.4819 181.798 37.6328C181.798 35.7841 183.146 35.1677 185.881 34.5514C187.191 34.2431 188.616 33.935 189.541 33.3955V36.3619C189.541 38.2877 187.885 40.1368 184.88 40.1368Z" fill="#F9F9F9" id="svg_12"/>
<path d="M197.802 49.8055H203.041V41.0999H203.118C204.235 42.7948 206.046 43.9118 208.819 43.9118C213.904 43.9118 217.371 39.8672 217.371 33.4726C217.371 27.3094 214.02 23.0334 208.781 23.0334C206.084 23.0334 204.235 24.3046 202.964 26.0382H202.849V23.5728H197.802V49.8055ZM207.702 39.5589C204.582 39.5589 202.926 37.2092 202.926 33.6267C202.926 30.0828 204.235 27.2709 207.51 27.2709C210.745 27.2709 212.055 29.8901 212.055 33.6267C212.055 37.3633 210.36 39.5589 207.702 39.5589Z" fill="#F9F9F9" id="svg_13"/>
<path d="M219.809 43.334H225.048V23.5728H219.809V43.334ZM219.809 20.4911H225.048V15.7915H219.809V20.4911Z" fill="#F9F9F9" id="svg_14"/>
<path d="M227.268 27.0397H230.003V38.6345C230.003 42.3711 232.815 43.3726 235.357 43.3726C237.437 43.3726 238.631 43.2955 238.631 43.2955V39.4433C238.631 39.4433 237.746 39.4819 237.091 39.4819C235.935 39.4819 235.126 38.9811 235.126 37.5175V27.0397H238.516V23.5728H235.126V17.4094H230.003V23.5728H227.268V27.0397Z" fill="#F9F9F9" id="svg_15"/>
<path d="M253.844 43.3341H258.89V43.1414C258.427 42.7948 258.197 41.9087 258.197 40.4065V30.3526C258.197 25.7299 255.81 23.072 249.876 23.072C244.097 23.072 241.517 26.1153 241.363 29.5821H246.024C246.178 27.6946 247.373 26.8085 249.839 26.8085C252.034 26.8085 253.151 27.7331 253.151 29.1585C253.151 30.6607 251.649 30.9304 248.373 31.3926C243.983 32.0089 240.439 33.3955 240.439 37.7485C240.439 41.6777 243.289 43.7963 247.334 43.7963C250.724 43.7963 252.149 42.6407 253.151 41.1385H253.227C253.344 42.0243 253.537 42.9489 253.844 43.3341ZM248.605 40.1368C246.756 40.1368 245.524 39.4819 245.524 37.6328C245.524 35.7841 246.871 35.1677 249.607 34.5514C250.917 34.2431 252.341 33.935 253.266 33.3955V36.3619C253.266 38.2877 251.61 40.1368 248.605 40.1368Z" fill="#F9F9F9" id="svg_16"/>
<path d="M261.605 43.334H266.844V15.7915H261.605V43.334Z" fill="#F9F9F9" id="svg_17"/>
</g></g></svg>