<svg width="179" height="41" viewBox="0 0 179 41" fill="none" xmlns="http://www.w3.org/2000/svg">
<g clip-path="url(#clip0_18_185)">
<path d="M25.0522 1.01941C25.0522 9.27418 31.744 15.966 39.9988 15.966V19.7985C29.6274 19.7985 21.2197 11.3908 21.2197 1.01941H25.0522Z" fill="#F9F9F9"/>
<path d="M25.0522 40.878C25.0522 32.6232 31.744 25.9315 39.9988 25.9315V22.099C29.6274 22.099 21.2197 30.5066 21.2197 40.878H25.0522Z" fill="#F9F9F9"/>
<path d="M0.141357 25.9315C8.39613 25.9315 15.088 32.6232 15.088 40.878H18.9204C18.9204 30.5066 10.5127 22.099 0.141357 22.099V25.9315Z" fill="#F9F9F9"/>
<path d="M15.088 1.01941C15.088 9.27418 8.39613 15.966 0.141357 15.966V19.7985C10.5127 19.7985 18.9204 11.3908 18.9204 1.01941H15.088Z" fill="#F9F9F9"/>
<path d="M65.8818 29.2903H68.681V19.5316H60.9511V22.4079H65.3682V22.5106C65.3682 24.5394 63.4935 26.671 60.643 26.671C57.4843 26.671 55.5069 23.923 55.5069 20.1737C55.5069 16.527 57.2275 13.6508 60.6943 13.6508C63.0569 13.6508 64.4181 14.9348 64.829 16.7068H68.4756C67.8849 13.1115 65.2399 10.5691 60.6173 10.5691C58.1519 10.5691 56.2002 11.3138 54.7108 12.6749C52.7848 14.4469 51.7061 17.1177 51.7061 20.1737C51.7061 22.9472 52.5792 25.3098 54.0943 27.0048C55.6096 28.674 57.7667 29.6755 60.5402 29.6755C62.7231 29.6755 64.4438 28.9308 65.7022 26.8249H65.7534L65.8818 29.2903Z" fill="#F9F9F9"/>
<path d="M71.002 29.2904H74.4945V16.1162H71.002V29.2904ZM71.002 14.0618H74.4945V10.9287H71.002V14.0618Z" fill="#F9F9F9"/>
<path d="M80.1605 16.1161H76.7449V29.2903H80.2376V21.8173C80.2376 20.0196 81.3675 18.7869 82.9083 18.7869C84.372 18.7869 85.1938 19.7885 85.1938 21.2009V29.2903H88.6865V20.6872C88.6865 17.8111 86.8631 15.7566 84.141 15.7566C82.3432 15.7566 81.1363 16.5013 80.2376 17.9137H80.1605V16.1161Z" fill="#F9F9F9"/>
<path d="M90.8391 29.2904H94.3318V16.1162H90.8391V29.2904ZM90.8391 14.0618H94.3318V10.9287H90.8391V14.0618Z" fill="#F9F9F9"/>
<path d="M109.216 29.6755C111.759 29.6755 113.531 28.9051 114.789 27.7238C116.022 26.5682 116.715 25.0017 116.818 23.3838H113.171C112.94 25.3098 111.399 26.6196 109.216 26.6196C106.135 26.6196 104.183 23.923 104.183 20.1737C104.183 16.527 105.801 13.7021 109.191 13.7021C111.348 13.7021 112.735 14.9091 113.068 16.7581H116.767C116.381 13.2656 113.71 10.5691 109.191 10.5691C103.772 10.5691 100.382 14.7294 100.382 20.1737C100.382 25.695 104.055 29.6755 109.216 29.6755Z" fill="#F9F9F9"/>
<path d="M126.746 29.2904H130.11V29.1619C129.802 28.9309 129.648 28.3401 129.648 27.3387V20.6361C129.648 17.5543 128.055 15.7823 124.101 15.7823C120.249 15.7823 118.528 17.8112 118.425 20.1224H121.533C121.635 18.864 122.431 18.2733 124.075 18.2733C125.539 18.2733 126.283 18.8897 126.283 19.84C126.283 20.8414 125.282 21.0213 123.099 21.3294C120.171 21.7403 117.809 22.6647 117.809 25.5666C117.809 28.1862 119.709 29.5985 122.406 29.5985C124.666 29.5985 125.616 28.8281 126.283 27.8266H126.335C126.412 28.4172 126.54 29.0336 126.746 29.2904ZM123.253 27.1588C122.021 27.1588 121.199 26.7222 121.199 25.4896C121.199 24.257 122.097 23.8462 123.921 23.4353C124.794 23.2297 125.744 23.0244 126.361 22.6647V24.6423C126.361 25.9262 125.256 27.1588 123.253 27.1588Z" fill="#F9F9F9"/>
<path d="M131.868 33.6046H135.361V27.8009H135.412C136.157 28.9308 137.364 29.6755 139.213 29.6755C142.603 29.6755 144.914 26.9791 144.914 22.716C144.914 18.6072 142.68 15.7566 139.187 15.7566C137.389 15.7566 136.157 16.6041 135.309 17.7597H135.232V16.1161H131.868V33.6046ZM138.468 26.7736C136.388 26.7736 135.284 25.2071 135.284 22.8188C135.284 20.4562 136.157 18.5815 138.34 18.5815C140.497 18.5815 141.37 20.3277 141.37 22.8188C141.37 25.3098 140.24 26.7736 138.468 26.7736Z" fill="#F9F9F9"/>
<path d="M146.539 29.2904H150.032V16.1162H146.539V29.2904ZM146.539 14.0618H150.032V10.9287H146.539V14.0618Z" fill="#F9F9F9"/>
<path d="M151.512 18.4275H153.335V26.1574C153.335 28.6485 155.21 29.3161 156.905 29.3161C158.292 29.3161 159.088 29.2647 159.088 29.2647V26.6966C159.088 26.6966 158.497 26.7223 158.061 26.7223C157.29 26.7223 156.751 26.3885 156.751 25.4127V18.4275H159.011V16.1162H156.751V12.0073H153.335V16.1162H151.512V18.4275Z" fill="#F9F9F9"/>
<path d="M169.229 29.2904H172.593V29.1619C172.285 28.9309 172.132 28.3401 172.132 27.3387V20.6361C172.132 17.5543 170.54 15.7823 166.584 15.7823C162.732 15.7823 161.012 17.8112 160.909 20.1224H164.016C164.119 18.864 164.915 18.2733 166.559 18.2733C168.023 18.2733 168.767 18.8897 168.767 19.84C168.767 20.8414 167.766 21.0213 165.582 21.3294C162.655 21.7403 160.292 22.6647 160.292 25.5666C160.292 28.1862 162.193 29.5985 164.889 29.5985C167.15 29.5985 168.099 28.8281 168.767 27.8266H168.818C168.896 28.4172 169.024 29.0336 169.229 29.2904ZM165.737 27.1588C164.504 27.1588 163.683 26.7222 163.683 25.4896C163.683 24.257 164.58 23.8462 166.405 23.4353C167.278 23.2297 168.228 23.0244 168.844 22.6647V24.6423C168.844 25.9262 167.74 27.1588 165.737 27.1588Z" fill="#F9F9F9"/>
<path d="M174.403 29.2904H177.896V10.9287H174.403V29.2904Z" fill="#F9F9F9"/>
</g>
<defs>
<clipPath id="clip0_18_185">
<rect width="178.049" height="40" fill="white" transform="translate(0 0.94873)"/>
</clipPath>
</defs>
</svg>
