<svg width="12" height="13" viewBox="0 0 12 13" fill="none" xmlns="http://www.w3.org/2000/svg">
<path d="M2.41333 5.51487C3.37333 7.40153 4.92 8.94153 6.80667 9.9082L8.27333 8.44153C8.45333 8.26153 8.72 8.20153 8.95333 8.28153C9.7 8.5282 10.5067 8.66153 11.3333 8.66153C11.7 8.66153 12 8.96153 12 9.3282V11.6549C12 12.0215 11.7 12.3215 11.3333 12.3215C5.07333 12.3215 0 7.2482 0 0.9882C0 0.621533 0.3 0.321533 0.666667 0.321533H3C3.36667 0.321533 3.66667 0.621533 3.66667 0.9882C3.66667 1.82153 3.8 2.62153 4.04667 3.3682C4.12 3.60153 4.06667 3.86153 3.88 4.0482L2.41333 5.51487Z" fill="#202020"/>
</svg>
